<mxfile host="Electron" agent="Mozilla/5.0 (Windows NT 10.0; Win64; x64) AppleWebKit/537.36 (KHTML, like Gecko) draw.io/24.7.17 Chrome/128.0.6613.36 Electron/32.0.1 Safari/537.36" version="24.7.17" pages="8">
  <diagram id="C5RBs43oDa-KdzZeNtuy" name="dataset_class_diagram">
    <mxGraphModel dx="1687" dy="984" grid="1" gridSize="10" guides="1" tooltips="1" connect="1" arrows="1" fold="1" page="1" pageScale="1" pageWidth="827" pageHeight="1169" math="0" shadow="0">
      <root>
        <mxCell id="WIyWlLk6GJQsqaUBKTNV-0" />
        <mxCell id="WIyWlLk6GJQsqaUBKTNV-1" parent="WIyWlLk6GJQsqaUBKTNV-0" />
        <mxCell id="zkfFHV4jXpPFQw0GAbJ--0" value="Dataset" style="swimlane;fontStyle=2;align=center;verticalAlign=top;childLayout=stackLayout;horizontal=1;startSize=26;horizontalStack=0;resizeParent=1;resizeLast=0;collapsible=1;marginBottom=0;rounded=0;shadow=0;strokeWidth=1;fillColor=#dae8fc;strokeColor=#6c8ebf;" parent="WIyWlLk6GJQsqaUBKTNV-1" vertex="1">
          <mxGeometry x="280" y="30" width="160" height="110" as="geometry">
            <mxRectangle x="230" y="140" width="160" height="26" as="alternateBounds" />
          </mxGeometry>
        </mxCell>
        <mxCell id="zkfFHV4jXpPFQw0GAbJ--4" value="" style="line;html=1;strokeWidth=1;align=left;verticalAlign=middle;spacingTop=-1;spacingLeft=3;spacingRight=3;rotatable=0;labelPosition=right;points=[];portConstraint=eastwest;" parent="zkfFHV4jXpPFQw0GAbJ--0" vertex="1">
          <mxGeometry y="26" width="160" height="8" as="geometry" />
        </mxCell>
        <mxCell id="zkfFHV4jXpPFQw0GAbJ--5" value="__len__: int&#xa;__getitem__: any" style="text;align=left;verticalAlign=top;spacingLeft=4;spacingRight=4;overflow=hidden;rotatable=0;points=[[0,0.5],[1,0.5]];portConstraint=eastwest;" parent="zkfFHV4jXpPFQw0GAbJ--0" vertex="1">
          <mxGeometry y="34" width="160" height="66" as="geometry" />
        </mxCell>
        <mxCell id="6Lpu3Kk35o7hnLmSc-F6-11" style="edgeStyle=orthogonalEdgeStyle;rounded=0;orthogonalLoop=1;jettySize=auto;html=1;exitX=0.5;exitY=0;exitDx=0;exitDy=0;entryX=0.5;entryY=1;entryDx=0;entryDy=0;startArrow=diamond;startFill=0;" edge="1" parent="WIyWlLk6GJQsqaUBKTNV-1" source="6Lpu3Kk35o7hnLmSc-F6-7" target="zkfFHV4jXpPFQw0GAbJ--0">
          <mxGeometry relative="1" as="geometry" />
        </mxCell>
        <mxCell id="6Lpu3Kk35o7hnLmSc-F6-7" value="&lt;i style=&quot;font-weight: normal;&quot;&gt;HandWrittingDataset&lt;/i&gt;&lt;div&gt;&lt;i style=&quot;font-weight: normal;&quot;&gt;&amp;lt;&amp;lt;Abstract&amp;gt;&amp;gt;&lt;/i&gt;&lt;/div&gt;" style="swimlane;fontStyle=1;align=center;verticalAlign=top;childLayout=stackLayout;horizontal=1;startSize=40;horizontalStack=0;resizeParent=1;resizeParentMax=0;resizeLast=0;collapsible=1;marginBottom=0;whiteSpace=wrap;html=1;" vertex="1" parent="WIyWlLk6GJQsqaUBKTNV-1">
          <mxGeometry x="45" y="200" width="630" height="510" as="geometry" />
        </mxCell>
        <mxCell id="6Lpu3Kk35o7hnLmSc-F6-8" value="&lt;div&gt;patchified_images: torch.Tensor&lt;/div&gt;&lt;div&gt;patches_padding_masks: torch.Tensor&lt;/div&gt;&lt;div&gt;signals_as_tensor: list[torch.Tensor]&lt;/div&gt;&lt;div&gt;&lt;br&gt;&lt;/div&gt;&lt;div&gt;&lt;span style=&quot;background-color: initial;&quot;&gt;batchified_patchified_images: list[torch.Tensor]&lt;/span&gt;&lt;br&gt;&lt;/div&gt;&lt;div&gt;batchified_patches_padding_masks: list[torch.Tensor]&lt;/div&gt;&lt;div&gt;batchified_sequences: list[torch.Tensor]&lt;/div&gt;&lt;div&gt;&lt;br&gt;&lt;/div&gt;&lt;div&gt;patchificator: Patchificator&lt;/div&gt;&lt;div&gt;normalize_pixel_values: bool&lt;/div&gt;&lt;div&gt;normalize_coordinate_sequences: bool&lt;/div&gt;&lt;div&gt;&lt;br&gt;&lt;/div&gt;&lt;div&gt;patches_dim: tuple&lt;/div&gt;&lt;div&gt;target_image_shape: tuple&lt;/div&gt;&lt;div&gt;&lt;br&gt;&lt;/div&gt;&lt;div&gt;window_size: int&lt;/div&gt;&lt;div&gt;lstm_forecast_length: int&lt;br&gt;&lt;div&gt;&lt;span style=&quot;background-color: initial;&quot;&gt;coordinate_to_predict: list[torch.Tensor]&lt;/span&gt;&lt;br&gt;&lt;/div&gt;&lt;div&gt;&lt;br&gt;&lt;/div&gt;&lt;div&gt;&lt;b&gt;&lt;font color=&quot;#ea6b66&quot;&gt;&lt;span style=&quot;background-color: initial;&quot;&gt;signals: list[list]&lt;/span&gt;&lt;br&gt;&lt;/font&gt;&lt;/b&gt;&lt;/div&gt;&lt;div&gt;&lt;b&gt;&lt;font color=&quot;#ea6b66&quot;&gt;images: list[np.ndarray]&lt;/font&gt;&lt;/b&gt;&lt;/div&gt;&lt;/div&gt;" style="text;strokeColor=none;fillColor=none;align=left;verticalAlign=top;spacingLeft=4;spacingRight=4;overflow=hidden;rotatable=0;points=[[0,0.5],[1,0.5]];portConstraint=eastwest;whiteSpace=wrap;html=1;" vertex="1" parent="6Lpu3Kk35o7hnLmSc-F6-7">
          <mxGeometry y="40" width="630" height="350" as="geometry" />
        </mxCell>
        <mxCell id="6Lpu3Kk35o7hnLmSc-F6-9" value="" style="line;strokeWidth=1;fillColor=none;align=left;verticalAlign=middle;spacingTop=-1;spacingLeft=3;spacingRight=3;rotatable=0;labelPosition=right;points=[];portConstraint=eastwest;strokeColor=inherit;" vertex="1" parent="6Lpu3Kk35o7hnLmSc-F6-7">
          <mxGeometry y="390" width="630" height="8" as="geometry" />
        </mxCell>
        <mxCell id="6Lpu3Kk35o7hnLmSc-F6-10" value="&lt;b style=&quot;color: rgb(234, 107, 102);&quot;&gt;Abstract&amp;nbsp;_load_data&lt;/b&gt;&lt;br&gt;&lt;br&gt;&lt;span style=&quot;text-wrap: nowrap;&quot;&gt;__len__: int&lt;/span&gt;&lt;br style=&quot;padding: 0px; margin: 0px; text-wrap: nowrap;&quot;&gt;&lt;span style=&quot;text-wrap: nowrap;&quot;&gt;__getitem__: any&lt;br&gt;&lt;/span&gt;&lt;br&gt;transform_to_batch" style="text;strokeColor=none;fillColor=none;align=left;verticalAlign=top;spacingLeft=4;spacingRight=4;overflow=hidden;rotatable=0;points=[[0,0.5],[1,0.5]];portConstraint=eastwest;whiteSpace=wrap;html=1;" vertex="1" parent="6Lpu3Kk35o7hnLmSc-F6-7">
          <mxGeometry y="398" width="630" height="112" as="geometry" />
        </mxCell>
        <mxCell id="6Lpu3Kk35o7hnLmSc-F6-13" value="StrokedHandwrittingDataset" style="swimlane;fontStyle=1;align=center;verticalAlign=top;childLayout=stackLayout;horizontal=1;startSize=26;horizontalStack=0;resizeParent=1;resizeParentMax=0;resizeLast=0;collapsible=1;marginBottom=0;whiteSpace=wrap;html=1;" vertex="1" parent="WIyWlLk6GJQsqaUBKTNV-1">
          <mxGeometry x="205" y="800" width="310" height="170" as="geometry" />
        </mxCell>
        <mxCell id="6Lpu3Kk35o7hnLmSc-F6-14" value="StrokeMode:&amp;nbsp;STROKES ||&amp;nbsp;SUBSTROKES" style="text;strokeColor=none;fillColor=none;align=left;verticalAlign=top;spacingLeft=4;spacingRight=4;overflow=hidden;rotatable=0;points=[[0,0.5],[1,0.5]];portConstraint=eastwest;whiteSpace=wrap;html=1;" vertex="1" parent="6Lpu3Kk35o7hnLmSc-F6-13">
          <mxGeometry y="26" width="310" height="64" as="geometry" />
        </mxCell>
        <mxCell id="6Lpu3Kk35o7hnLmSc-F6-15" value="" style="line;strokeWidth=1;fillColor=none;align=left;verticalAlign=middle;spacingTop=-1;spacingLeft=3;spacingRight=3;rotatable=0;labelPosition=right;points=[];portConstraint=eastwest;strokeColor=inherit;" vertex="1" parent="6Lpu3Kk35o7hnLmSc-F6-13">
          <mxGeometry y="90" width="310" height="8" as="geometry" />
        </mxCell>
        <mxCell id="6Lpu3Kk35o7hnLmSc-F6-16" value="apply_substroke_to_signals&lt;div&gt;align_all_signal&lt;br&gt;apply_window_to_signals&lt;br&gt;&lt;/div&gt;" style="text;strokeColor=none;fillColor=none;align=left;verticalAlign=top;spacingLeft=4;spacingRight=4;overflow=hidden;rotatable=0;points=[[0,0.5],[1,0.5]];portConstraint=eastwest;whiteSpace=wrap;html=1;" vertex="1" parent="6Lpu3Kk35o7hnLmSc-F6-13">
          <mxGeometry y="98" width="310" height="72" as="geometry" />
        </mxCell>
        <mxCell id="6Lpu3Kk35o7hnLmSc-F6-17" style="edgeStyle=orthogonalEdgeStyle;rounded=0;orthogonalLoop=1;jettySize=auto;html=1;exitX=0.5;exitY=0;exitDx=0;exitDy=0;startArrow=diamond;startFill=0;" edge="1" parent="WIyWlLk6GJQsqaUBKTNV-1" source="6Lpu3Kk35o7hnLmSc-F6-13">
          <mxGeometry relative="1" as="geometry">
            <mxPoint x="360" y="710" as="targetPoint" />
          </mxGeometry>
        </mxCell>
        <mxCell id="6Lpu3Kk35o7hnLmSc-F6-22" value="BrushDataset" style="swimlane;fontStyle=1;align=center;verticalAlign=top;childLayout=stackLayout;horizontal=1;startSize=26;horizontalStack=0;resizeParent=1;resizeParentMax=0;resizeLast=0;collapsible=1;marginBottom=0;whiteSpace=wrap;html=1;" vertex="1" parent="WIyWlLk6GJQsqaUBKTNV-1">
          <mxGeometry x="40" y="1040" width="200" height="60" as="geometry" />
        </mxCell>
        <mxCell id="6Lpu3Kk35o7hnLmSc-F6-24" value="" style="line;strokeWidth=1;fillColor=none;align=left;verticalAlign=middle;spacingTop=-1;spacingLeft=3;spacingRight=3;rotatable=0;labelPosition=right;points=[];portConstraint=eastwest;strokeColor=inherit;" vertex="1" parent="6Lpu3Kk35o7hnLmSc-F6-22">
          <mxGeometry y="26" width="200" height="8" as="geometry" />
        </mxCell>
        <mxCell id="6Lpu3Kk35o7hnLmSc-F6-25" value="_load_data" style="text;strokeColor=none;fillColor=none;align=left;verticalAlign=top;spacingLeft=4;spacingRight=4;overflow=hidden;rotatable=0;points=[[0,0.5],[1,0.5]];portConstraint=eastwest;whiteSpace=wrap;html=1;" vertex="1" parent="6Lpu3Kk35o7hnLmSc-F6-22">
          <mxGeometry y="34" width="200" height="26" as="geometry" />
        </mxCell>
        <mxCell id="6Lpu3Kk35o7hnLmSc-F6-26" value="UnpienDataset" style="swimlane;fontStyle=1;align=center;verticalAlign=top;childLayout=stackLayout;horizontal=1;startSize=26;horizontalStack=0;resizeParent=1;resizeParentMax=0;resizeLast=0;collapsible=1;marginBottom=0;whiteSpace=wrap;html=1;" vertex="1" parent="WIyWlLk6GJQsqaUBKTNV-1">
          <mxGeometry x="480" y="1040" width="200" height="60" as="geometry" />
        </mxCell>
        <mxCell id="6Lpu3Kk35o7hnLmSc-F6-28" value="" style="line;strokeWidth=1;fillColor=none;align=left;verticalAlign=middle;spacingTop=-1;spacingLeft=3;spacingRight=3;rotatable=0;labelPosition=right;points=[];portConstraint=eastwest;strokeColor=inherit;" vertex="1" parent="6Lpu3Kk35o7hnLmSc-F6-26">
          <mxGeometry y="26" width="200" height="8" as="geometry" />
        </mxCell>
        <mxCell id="6Lpu3Kk35o7hnLmSc-F6-29" value="_load_data" style="text;strokeColor=none;fillColor=none;align=left;verticalAlign=top;spacingLeft=4;spacingRight=4;overflow=hidden;rotatable=0;points=[[0,0.5],[1,0.5]];portConstraint=eastwest;whiteSpace=wrap;html=1;" vertex="1" parent="6Lpu3Kk35o7hnLmSc-F6-26">
          <mxGeometry y="34" width="200" height="26" as="geometry" />
        </mxCell>
        <mxCell id="6Lpu3Kk35o7hnLmSc-F6-32" style="edgeStyle=orthogonalEdgeStyle;rounded=0;orthogonalLoop=1;jettySize=auto;html=1;exitX=0.5;exitY=0;exitDx=0;exitDy=0;entryX=0.5;entryY=0.986;entryDx=0;entryDy=0;entryPerimeter=0;" edge="1" parent="WIyWlLk6GJQsqaUBKTNV-1" source="6Lpu3Kk35o7hnLmSc-F6-26" target="6Lpu3Kk35o7hnLmSc-F6-16">
          <mxGeometry relative="1" as="geometry" />
        </mxCell>
        <mxCell id="6Lpu3Kk35o7hnLmSc-F6-33" style="edgeStyle=orthogonalEdgeStyle;rounded=0;orthogonalLoop=1;jettySize=auto;html=1;exitX=0.5;exitY=0;exitDx=0;exitDy=0;entryX=0.497;entryY=1.014;entryDx=0;entryDy=0;entryPerimeter=0;" edge="1" parent="WIyWlLk6GJQsqaUBKTNV-1" source="6Lpu3Kk35o7hnLmSc-F6-22" target="6Lpu3Kk35o7hnLmSc-F6-16">
          <mxGeometry relative="1" as="geometry" />
        </mxCell>
      </root>
    </mxGraphModel>
  </diagram>
  <diagram id="xD0Nu2GdW1r10iOzFhq0" name="data_processing_chain">
    <mxGraphModel dx="1434" dy="836" grid="1" gridSize="10" guides="1" tooltips="1" connect="1" arrows="1" fold="1" page="1" pageScale="1" pageWidth="827" pageHeight="1169" math="0" shadow="0">
      <root>
        <mxCell id="0" />
        <mxCell id="1" parent="0" />
        <mxCell id="K9WM3DasutCxlLifOrDJ-11" style="edgeStyle=orthogonalEdgeStyle;rounded=0;orthogonalLoop=1;jettySize=auto;html=1;exitX=1;exitY=0.5;exitDx=0;exitDy=0;entryX=0;entryY=0.5;entryDx=0;entryDy=0;" edge="1" parent="1" source="K9WM3DasutCxlLifOrDJ-7" target="K9WM3DasutCxlLifOrDJ-10">
          <mxGeometry relative="1" as="geometry" />
        </mxCell>
        <mxCell id="K9WM3DasutCxlLifOrDJ-7" value="" style="rounded=0;whiteSpace=wrap;html=1;" vertex="1" parent="1">
          <mxGeometry x="40" y="155" width="200" height="325" as="geometry" />
        </mxCell>
        <mxCell id="K9WM3DasutCxlLifOrDJ-1" value="[x,y] vectors" style="rounded=0;whiteSpace=wrap;html=1;" vertex="1" parent="1">
          <mxGeometry x="80" y="240" width="120" height="40" as="geometry" />
        </mxCell>
        <mxCell id="K9WM3DasutCxlLifOrDJ-2" value="Images" style="rounded=0;whiteSpace=wrap;html=1;verticalAlign=top;" vertex="1" parent="1">
          <mxGeometry x="80" y="320" width="120" height="80" as="geometry" />
        </mxCell>
        <mxCell id="K9WM3DasutCxlLifOrDJ-3" value="" style="shape=parallelogram;perimeter=parallelogramPerimeter;whiteSpace=wrap;html=1;fixedSize=1;" vertex="1" parent="1">
          <mxGeometry x="90" y="360" width="60" height="20" as="geometry" />
        </mxCell>
        <mxCell id="K9WM3DasutCxlLifOrDJ-4" value="" style="shape=parallelogram;perimeter=parallelogramPerimeter;whiteSpace=wrap;html=1;fixedSize=1;" vertex="1" parent="1">
          <mxGeometry x="106" y="366" width="60" height="20" as="geometry" />
        </mxCell>
        <mxCell id="K9WM3DasutCxlLifOrDJ-5" value="" style="shape=parallelogram;perimeter=parallelogramPerimeter;whiteSpace=wrap;html=1;fixedSize=1;" vertex="1" parent="1">
          <mxGeometry x="130" y="370" width="60" height="20" as="geometry" />
        </mxCell>
        <mxCell id="K9WM3DasutCxlLifOrDJ-6" value="Data source" style="text;html=1;align=center;verticalAlign=middle;whiteSpace=wrap;rounded=0;" vertex="1" parent="1">
          <mxGeometry x="105" y="170" width="70" height="30" as="geometry" />
        </mxCell>
        <mxCell id="K9WM3DasutCxlLifOrDJ-24" style="edgeStyle=orthogonalEdgeStyle;rounded=0;orthogonalLoop=1;jettySize=auto;html=1;exitX=1;exitY=0.5;exitDx=0;exitDy=0;entryX=0;entryY=0.5;entryDx=0;entryDy=0;" edge="1" parent="1" source="K9WM3DasutCxlLifOrDJ-8" target="K9WM3DasutCxlLifOrDJ-18">
          <mxGeometry relative="1" as="geometry" />
        </mxCell>
        <mxCell id="K9WM3DasutCxlLifOrDJ-8" value="" style="rounded=0;whiteSpace=wrap;html=1;" vertex="1" parent="1">
          <mxGeometry x="660" y="155" width="200" height="325" as="geometry" />
        </mxCell>
        <mxCell id="K9WM3DasutCxlLifOrDJ-10" value="Signal pre-processing" style="rhombus;whiteSpace=wrap;html=1;verticalAlign=bottom;labelPosition=center;verticalLabelPosition=top;align=center;" vertex="1" parent="1">
          <mxGeometry x="280" y="266.25" width="120" height="102.5" as="geometry" />
        </mxCell>
        <mxCell id="K9WM3DasutCxlLifOrDJ-16" style="edgeStyle=orthogonalEdgeStyle;rounded=0;orthogonalLoop=1;jettySize=auto;html=1;exitX=1;exitY=0.5;exitDx=0;exitDy=0;entryX=0;entryY=0.5;entryDx=0;entryDy=0;" edge="1" parent="1" source="K9WM3DasutCxlLifOrDJ-14" target="K9WM3DasutCxlLifOrDJ-15">
          <mxGeometry relative="1" as="geometry" />
        </mxCell>
        <mxCell id="K9WM3DasutCxlLifOrDJ-14" value="Stroke Mode&lt;div&gt;Window&lt;/div&gt;&lt;div&gt;Alignment&lt;/div&gt;" style="rhombus;whiteSpace=wrap;html=1;verticalAlign=middle;labelPosition=center;verticalLabelPosition=middle;align=center;" vertex="1" parent="1">
          <mxGeometry x="280" y="266.5" width="120" height="102.5" as="geometry" />
        </mxCell>
        <mxCell id="K9WM3DasutCxlLifOrDJ-17" style="edgeStyle=orthogonalEdgeStyle;rounded=0;orthogonalLoop=1;jettySize=auto;html=1;exitX=1;exitY=0.5;exitDx=0;exitDy=0;entryX=0;entryY=0.5;entryDx=0;entryDy=0;" edge="1" parent="1" source="K9WM3DasutCxlLifOrDJ-15" target="K9WM3DasutCxlLifOrDJ-8">
          <mxGeometry relative="1" as="geometry" />
        </mxCell>
        <mxCell id="K9WM3DasutCxlLifOrDJ-15" value="Tensor processing" style="rhombus;whiteSpace=wrap;html=1;verticalAlign=bottom;labelPosition=center;verticalLabelPosition=top;align=center;" vertex="1" parent="1">
          <mxGeometry x="450" y="245.63" width="150" height="143.75" as="geometry" />
        </mxCell>
        <mxCell id="K9WM3DasutCxlLifOrDJ-18" value="Batchification" style="rhombus;whiteSpace=wrap;html=1;" vertex="1" parent="1">
          <mxGeometry x="920" y="272.75" width="100" height="90" as="geometry" />
        </mxCell>
        <mxCell id="K9WM3DasutCxlLifOrDJ-19" value="Homogeneization&lt;div&gt;Sequences and images&lt;/div&gt;&lt;div&gt;Patchification&lt;/div&gt;&lt;div&gt;Padding&lt;/div&gt;" style="rhombus;whiteSpace=wrap;html=1;verticalAlign=middle;labelPosition=center;verticalLabelPosition=middle;align=center;" vertex="1" parent="1">
          <mxGeometry x="450" y="245.88" width="150" height="143.5" as="geometry" />
        </mxCell>
        <mxCell id="K9WM3DasutCxlLifOrDJ-21" value="Sequences tensor" style="shape=process;whiteSpace=wrap;html=1;backgroundOutline=1;" vertex="1" parent="1">
          <mxGeometry x="700" y="185.88" width="120" height="60" as="geometry" />
        </mxCell>
        <mxCell id="K9WM3DasutCxlLifOrDJ-22" value="Images tensor" style="shape=process;whiteSpace=wrap;html=1;backgroundOutline=1;" vertex="1" parent="1">
          <mxGeometry x="700" y="287.75" width="120" height="60" as="geometry" />
        </mxCell>
        <mxCell id="K9WM3DasutCxlLifOrDJ-23" value="Padding tensor" style="shape=process;whiteSpace=wrap;html=1;backgroundOutline=1;" vertex="1" parent="1">
          <mxGeometry x="700" y="380" width="120" height="60" as="geometry" />
        </mxCell>
        <mxCell id="K9WM3DasutCxlLifOrDJ-25" value="" style="rounded=0;whiteSpace=wrap;html=1;" vertex="1" parent="1">
          <mxGeometry x="1080" y="155.25" width="200" height="325" as="geometry" />
        </mxCell>
        <mxCell id="K9WM3DasutCxlLifOrDJ-26" style="edgeStyle=orthogonalEdgeStyle;rounded=0;orthogonalLoop=1;jettySize=auto;html=1;exitX=1;exitY=0.5;exitDx=0;exitDy=0;entryX=0;entryY=0.5;entryDx=0;entryDy=0;" edge="1" parent="1" target="K9WM3DasutCxlLifOrDJ-25" source="K9WM3DasutCxlLifOrDJ-18">
          <mxGeometry relative="1" as="geometry">
            <mxPoint x="1080" y="318.25" as="sourcePoint" />
          </mxGeometry>
        </mxCell>
        <mxCell id="K9WM3DasutCxlLifOrDJ-27" value="Sequences tensor" style="shape=process;whiteSpace=wrap;html=1;backgroundOutline=1;" vertex="1" parent="1">
          <mxGeometry x="1120" y="186.13" width="120" height="60" as="geometry" />
        </mxCell>
        <mxCell id="K9WM3DasutCxlLifOrDJ-28" value="Patchified Images tensor" style="shape=process;whiteSpace=wrap;html=1;backgroundOutline=1;" vertex="1" parent="1">
          <mxGeometry x="1120" y="288" width="120" height="60" as="geometry" />
        </mxCell>
        <mxCell id="K9WM3DasutCxlLifOrDJ-29" value="Patchified Padding tensor" style="shape=process;whiteSpace=wrap;html=1;backgroundOutline=1;" vertex="1" parent="1">
          <mxGeometry x="1120" y="380.25" width="120" height="60" as="geometry" />
        </mxCell>
      </root>
    </mxGraphModel>
  </diagram>
  <diagram id="guMsWjaaMotWq5V0V2X6" name="batchification">
    <mxGraphModel dx="2261" dy="836" grid="1" gridSize="10" guides="1" tooltips="1" connect="1" arrows="1" fold="1" page="1" pageScale="1" pageWidth="827" pageHeight="1169" math="0" shadow="0">
      <root>
        <mxCell id="0" />
        <mxCell id="1" parent="0" />
        <mxCell id="tq8OV5KKIC8uH16IbvSv-1" value="Vector" style="shape=process;whiteSpace=wrap;html=1;backgroundOutline=1;labelPosition=center;verticalLabelPosition=top;align=center;verticalAlign=bottom;" vertex="1" parent="1">
          <mxGeometry x="120" y="210" width="300" height="60" as="geometry" />
        </mxCell>
        <mxCell id="tq8OV5KKIC8uH16IbvSv-2" value="x&lt;div&gt;y&lt;/div&gt;" style="rounded=0;whiteSpace=wrap;html=1;" vertex="1" parent="1">
          <mxGeometry x="150" y="210" width="30" height="60" as="geometry" />
        </mxCell>
        <mxCell id="tq8OV5KKIC8uH16IbvSv-3" value="x&lt;div&gt;y&lt;/div&gt;" style="rounded=0;whiteSpace=wrap;html=1;" vertex="1" parent="1">
          <mxGeometry x="180" y="210" width="30" height="60" as="geometry" />
        </mxCell>
        <mxCell id="tq8OV5KKIC8uH16IbvSv-4" value="x&lt;div&gt;y&lt;/div&gt;" style="rounded=0;whiteSpace=wrap;html=1;" vertex="1" parent="1">
          <mxGeometry x="210" y="210" width="30" height="60" as="geometry" />
        </mxCell>
        <mxCell id="tq8OV5KKIC8uH16IbvSv-5" value="x&lt;div&gt;y&lt;/div&gt;" style="rounded=0;whiteSpace=wrap;html=1;" vertex="1" parent="1">
          <mxGeometry x="240" y="210" width="30" height="60" as="geometry" />
        </mxCell>
        <mxCell id="tq8OV5KKIC8uH16IbvSv-6" value="x&lt;div&gt;y&lt;/div&gt;" style="rounded=0;whiteSpace=wrap;html=1;" vertex="1" parent="1">
          <mxGeometry x="270" y="210" width="30" height="60" as="geometry" />
        </mxCell>
        <mxCell id="tq8OV5KKIC8uH16IbvSv-7" value="x&lt;div&gt;y&lt;/div&gt;" style="rounded=0;whiteSpace=wrap;html=1;" vertex="1" parent="1">
          <mxGeometry x="300" y="210" width="30" height="60" as="geometry" />
        </mxCell>
        <mxCell id="tq8OV5KKIC8uH16IbvSv-8" value="x&lt;div&gt;y&lt;/div&gt;" style="rounded=0;whiteSpace=wrap;html=1;" vertex="1" parent="1">
          <mxGeometry x="330" y="210" width="30" height="60" as="geometry" />
        </mxCell>
        <mxCell id="tq8OV5KKIC8uH16IbvSv-9" value="x&lt;div&gt;y&lt;/div&gt;" style="rounded=0;whiteSpace=wrap;html=1;" vertex="1" parent="1">
          <mxGeometry x="360" y="210" width="30" height="60" as="geometry" />
        </mxCell>
        <mxCell id="tq8OV5KKIC8uH16IbvSv-12" value="Image" style="whiteSpace=wrap;html=1;aspect=fixed;" vertex="1" parent="1">
          <mxGeometry x="480" y="160" width="160" height="160" as="geometry" />
        </mxCell>
        <mxCell id="tq8OV5KKIC8uH16IbvSv-15" value="x&lt;div&gt;y&lt;/div&gt;" style="rounded=0;whiteSpace=wrap;html=1;" vertex="1" parent="1">
          <mxGeometry x="120" y="210" width="30" height="60" as="geometry" />
        </mxCell>
        <mxCell id="tq8OV5KKIC8uH16IbvSv-16" value="x&lt;div&gt;y&lt;/div&gt;" style="rounded=0;whiteSpace=wrap;html=1;" vertex="1" parent="1">
          <mxGeometry x="390" y="210" width="30" height="60" as="geometry" />
        </mxCell>
        <mxCell id="tq8OV5KKIC8uH16IbvSv-18" value="" style="endArrow=none;dashed=1;html=1;dashPattern=1 3;strokeWidth=2;rounded=0;" edge="1" parent="1">
          <mxGeometry width="50" height="50" relative="1" as="geometry">
            <mxPoint x="400" y="680" as="sourcePoint" />
            <mxPoint x="400" y="360" as="targetPoint" />
          </mxGeometry>
        </mxCell>
        <mxCell id="tq8OV5KKIC8uH16IbvSv-19" value="Transformers" style="text;html=1;align=center;verticalAlign=middle;whiteSpace=wrap;rounded=0;" vertex="1" parent="1">
          <mxGeometry x="165" y="360" width="60" height="30" as="geometry" />
        </mxCell>
        <mxCell id="tq8OV5KKIC8uH16IbvSv-20" value="LSTM" style="text;html=1;align=center;verticalAlign=middle;whiteSpace=wrap;rounded=0;" vertex="1" parent="1">
          <mxGeometry x="560" y="360" width="60" height="30" as="geometry" />
        </mxCell>
        <mxCell id="tq8OV5KKIC8uH16IbvSv-21" value="Vector" style="shape=process;whiteSpace=wrap;html=1;backgroundOutline=1;labelPosition=center;verticalLabelPosition=top;align=center;verticalAlign=bottom;" vertex="1" parent="1">
          <mxGeometry x="80" y="420" width="300" height="60" as="geometry" />
        </mxCell>
        <mxCell id="tq8OV5KKIC8uH16IbvSv-22" value="x&lt;div&gt;y&lt;/div&gt;" style="rounded=0;whiteSpace=wrap;html=1;fillColor=#dae8fc;strokeColor=#6c8ebf;" vertex="1" parent="1">
          <mxGeometry x="110" y="420" width="30" height="60" as="geometry" />
        </mxCell>
        <mxCell id="tq8OV5KKIC8uH16IbvSv-23" value="x&lt;div&gt;y&lt;/div&gt;" style="rounded=0;whiteSpace=wrap;html=1;" vertex="1" parent="1">
          <mxGeometry x="140" y="420" width="30" height="60" as="geometry" />
        </mxCell>
        <mxCell id="tq8OV5KKIC8uH16IbvSv-24" value="x&lt;div&gt;y&lt;/div&gt;" style="rounded=0;whiteSpace=wrap;html=1;" vertex="1" parent="1">
          <mxGeometry x="170" y="420" width="30" height="60" as="geometry" />
        </mxCell>
        <mxCell id="tq8OV5KKIC8uH16IbvSv-25" value="x&lt;div&gt;y&lt;/div&gt;" style="rounded=0;whiteSpace=wrap;html=1;" vertex="1" parent="1">
          <mxGeometry x="200" y="420" width="30" height="60" as="geometry" />
        </mxCell>
        <mxCell id="tq8OV5KKIC8uH16IbvSv-26" value="x&lt;div&gt;y&lt;/div&gt;" style="rounded=0;whiteSpace=wrap;html=1;" vertex="1" parent="1">
          <mxGeometry x="230" y="420" width="30" height="60" as="geometry" />
        </mxCell>
        <mxCell id="tq8OV5KKIC8uH16IbvSv-27" value="x&lt;div&gt;y&lt;/div&gt;" style="rounded=0;whiteSpace=wrap;html=1;" vertex="1" parent="1">
          <mxGeometry x="260" y="420" width="30" height="60" as="geometry" />
        </mxCell>
        <mxCell id="tq8OV5KKIC8uH16IbvSv-28" value="x&lt;div&gt;y&lt;/div&gt;" style="rounded=0;whiteSpace=wrap;html=1;" vertex="1" parent="1">
          <mxGeometry x="290" y="420" width="30" height="60" as="geometry" />
        </mxCell>
        <mxCell id="tq8OV5KKIC8uH16IbvSv-29" value="x&lt;div&gt;y&lt;/div&gt;" style="rounded=0;whiteSpace=wrap;html=1;" vertex="1" parent="1">
          <mxGeometry x="320" y="420" width="30" height="60" as="geometry" />
        </mxCell>
        <mxCell id="tq8OV5KKIC8uH16IbvSv-30" value="Image" style="whiteSpace=wrap;html=1;aspect=fixed;" vertex="1" parent="1">
          <mxGeometry x="-20" y="420" width="60" height="60" as="geometry" />
        </mxCell>
        <mxCell id="tq8OV5KKIC8uH16IbvSv-31" value="x&lt;div&gt;y&lt;/div&gt;" style="rounded=0;whiteSpace=wrap;html=1;fillColor=#f8cecc;strokeColor=#b85450;" vertex="1" parent="1">
          <mxGeometry x="80" y="420" width="30" height="60" as="geometry" />
        </mxCell>
        <mxCell id="tq8OV5KKIC8uH16IbvSv-32" value="x&lt;div&gt;y&lt;/div&gt;" style="rounded=0;whiteSpace=wrap;html=1;" vertex="1" parent="1">
          <mxGeometry x="350" y="420" width="30" height="60" as="geometry" />
        </mxCell>
        <mxCell id="tq8OV5KKIC8uH16IbvSv-35" value="Image" style="whiteSpace=wrap;html=1;aspect=fixed;" vertex="1" parent="1">
          <mxGeometry x="-20" y="510" width="60" height="60" as="geometry" />
        </mxCell>
        <mxCell id="tq8OV5KKIC8uH16IbvSv-36" value="Image" style="whiteSpace=wrap;html=1;aspect=fixed;" vertex="1" parent="1">
          <mxGeometry x="-20" y="600" width="60" height="60" as="geometry" />
        </mxCell>
        <mxCell id="tq8OV5KKIC8uH16IbvSv-38" value="Vector" style="shape=process;whiteSpace=wrap;html=1;backgroundOutline=1;labelPosition=center;verticalLabelPosition=top;align=center;verticalAlign=bottom;" vertex="1" parent="1">
          <mxGeometry x="80" y="510" width="300" height="60" as="geometry" />
        </mxCell>
        <mxCell id="tq8OV5KKIC8uH16IbvSv-39" value="x&lt;div&gt;y&lt;/div&gt;" style="rounded=0;whiteSpace=wrap;html=1;fillColor=#f8cecc;strokeColor=#b85450;" vertex="1" parent="1">
          <mxGeometry x="110" y="510" width="30" height="60" as="geometry" />
        </mxCell>
        <mxCell id="tq8OV5KKIC8uH16IbvSv-40" value="x&lt;div&gt;y&lt;/div&gt;" style="rounded=0;whiteSpace=wrap;html=1;fillColor=#dae8fc;strokeColor=#6c8ebf;" vertex="1" parent="1">
          <mxGeometry x="140" y="510" width="30" height="60" as="geometry" />
        </mxCell>
        <mxCell id="tq8OV5KKIC8uH16IbvSv-41" value="x&lt;div&gt;y&lt;/div&gt;" style="rounded=0;whiteSpace=wrap;html=1;" vertex="1" parent="1">
          <mxGeometry x="170" y="510" width="30" height="60" as="geometry" />
        </mxCell>
        <mxCell id="tq8OV5KKIC8uH16IbvSv-42" value="x&lt;div&gt;y&lt;/div&gt;" style="rounded=0;whiteSpace=wrap;html=1;" vertex="1" parent="1">
          <mxGeometry x="200" y="510" width="30" height="60" as="geometry" />
        </mxCell>
        <mxCell id="tq8OV5KKIC8uH16IbvSv-43" value="x&lt;div&gt;y&lt;/div&gt;" style="rounded=0;whiteSpace=wrap;html=1;" vertex="1" parent="1">
          <mxGeometry x="230" y="510" width="30" height="60" as="geometry" />
        </mxCell>
        <mxCell id="tq8OV5KKIC8uH16IbvSv-44" value="x&lt;div&gt;y&lt;/div&gt;" style="rounded=0;whiteSpace=wrap;html=1;" vertex="1" parent="1">
          <mxGeometry x="260" y="510" width="30" height="60" as="geometry" />
        </mxCell>
        <mxCell id="tq8OV5KKIC8uH16IbvSv-45" value="x&lt;div&gt;y&lt;/div&gt;" style="rounded=0;whiteSpace=wrap;html=1;" vertex="1" parent="1">
          <mxGeometry x="290" y="510" width="30" height="60" as="geometry" />
        </mxCell>
        <mxCell id="tq8OV5KKIC8uH16IbvSv-46" value="x&lt;div&gt;y&lt;/div&gt;" style="rounded=0;whiteSpace=wrap;html=1;" vertex="1" parent="1">
          <mxGeometry x="320" y="510" width="30" height="60" as="geometry" />
        </mxCell>
        <mxCell id="tq8OV5KKIC8uH16IbvSv-47" value="x&lt;div&gt;y&lt;/div&gt;" style="rounded=0;whiteSpace=wrap;html=1;fillColor=#f8cecc;strokeColor=#b85450;" vertex="1" parent="1">
          <mxGeometry x="80" y="510" width="30" height="60" as="geometry" />
        </mxCell>
        <mxCell id="tq8OV5KKIC8uH16IbvSv-48" value="x&lt;div&gt;y&lt;/div&gt;" style="rounded=0;whiteSpace=wrap;html=1;" vertex="1" parent="1">
          <mxGeometry x="350" y="510" width="30" height="60" as="geometry" />
        </mxCell>
        <mxCell id="tq8OV5KKIC8uH16IbvSv-49" value="Vector" style="shape=process;whiteSpace=wrap;html=1;backgroundOutline=1;labelPosition=center;verticalLabelPosition=top;align=center;verticalAlign=bottom;" vertex="1" parent="1">
          <mxGeometry x="80" y="600" width="300" height="60" as="geometry" />
        </mxCell>
        <mxCell id="tq8OV5KKIC8uH16IbvSv-50" value="x&lt;div&gt;y&lt;/div&gt;" style="rounded=0;whiteSpace=wrap;html=1;fillColor=#f8cecc;strokeColor=#b85450;" vertex="1" parent="1">
          <mxGeometry x="110" y="600" width="30" height="60" as="geometry" />
        </mxCell>
        <mxCell id="tq8OV5KKIC8uH16IbvSv-51" value="x&lt;div&gt;y&lt;/div&gt;" style="rounded=0;whiteSpace=wrap;html=1;fillColor=#f8cecc;strokeColor=#b85450;" vertex="1" parent="1">
          <mxGeometry x="140" y="600" width="30" height="60" as="geometry" />
        </mxCell>
        <mxCell id="tq8OV5KKIC8uH16IbvSv-52" value="x&lt;div&gt;y&lt;/div&gt;" style="rounded=0;whiteSpace=wrap;html=1;fillColor=#dae8fc;strokeColor=#6c8ebf;" vertex="1" parent="1">
          <mxGeometry x="170" y="600" width="30" height="60" as="geometry" />
        </mxCell>
        <mxCell id="tq8OV5KKIC8uH16IbvSv-53" value="x&lt;div&gt;y&lt;/div&gt;" style="rounded=0;whiteSpace=wrap;html=1;" vertex="1" parent="1">
          <mxGeometry x="200" y="600" width="30" height="60" as="geometry" />
        </mxCell>
        <mxCell id="tq8OV5KKIC8uH16IbvSv-54" value="x&lt;div&gt;y&lt;/div&gt;" style="rounded=0;whiteSpace=wrap;html=1;" vertex="1" parent="1">
          <mxGeometry x="230" y="600" width="30" height="60" as="geometry" />
        </mxCell>
        <mxCell id="tq8OV5KKIC8uH16IbvSv-55" value="x&lt;div&gt;y&lt;/div&gt;" style="rounded=0;whiteSpace=wrap;html=1;" vertex="1" parent="1">
          <mxGeometry x="260" y="600" width="30" height="60" as="geometry" />
        </mxCell>
        <mxCell id="tq8OV5KKIC8uH16IbvSv-56" value="x&lt;div&gt;y&lt;/div&gt;" style="rounded=0;whiteSpace=wrap;html=1;" vertex="1" parent="1">
          <mxGeometry x="290" y="600" width="30" height="60" as="geometry" />
        </mxCell>
        <mxCell id="tq8OV5KKIC8uH16IbvSv-57" value="x&lt;div&gt;y&lt;/div&gt;" style="rounded=0;whiteSpace=wrap;html=1;" vertex="1" parent="1">
          <mxGeometry x="320" y="600" width="30" height="60" as="geometry" />
        </mxCell>
        <mxCell id="tq8OV5KKIC8uH16IbvSv-58" value="x&lt;div&gt;y&lt;/div&gt;" style="rounded=0;whiteSpace=wrap;html=1;fillColor=#f8cecc;strokeColor=#b85450;" vertex="1" parent="1">
          <mxGeometry x="80" y="600" width="30" height="60" as="geometry" />
        </mxCell>
        <mxCell id="tq8OV5KKIC8uH16IbvSv-59" value="x&lt;div&gt;y&lt;/div&gt;" style="rounded=0;whiteSpace=wrap;html=1;" vertex="1" parent="1">
          <mxGeometry x="350" y="600" width="30" height="60" as="geometry" />
        </mxCell>
        <mxCell id="tq8OV5KKIC8uH16IbvSv-60" value="Vector" style="shape=process;whiteSpace=wrap;html=1;backgroundOutline=1;labelPosition=center;verticalLabelPosition=top;align=center;verticalAlign=bottom;" vertex="1" parent="1">
          <mxGeometry x="440" y="420" width="300" height="60" as="geometry" />
        </mxCell>
        <mxCell id="tq8OV5KKIC8uH16IbvSv-61" value="x&lt;div&gt;y&lt;/div&gt;" style="rounded=0;whiteSpace=wrap;html=1;fillColor=#f8cecc;strokeColor=#b85450;" vertex="1" parent="1">
          <mxGeometry x="470" y="420" width="30" height="60" as="geometry" />
        </mxCell>
        <mxCell id="tq8OV5KKIC8uH16IbvSv-62" value="x&lt;div&gt;y&lt;/div&gt;" style="rounded=0;whiteSpace=wrap;html=1;fillColor=#f8cecc;strokeColor=#b85450;" vertex="1" parent="1">
          <mxGeometry x="500" y="420" width="30" height="60" as="geometry" />
        </mxCell>
        <mxCell id="tq8OV5KKIC8uH16IbvSv-63" value="x&lt;div&gt;y&lt;/div&gt;" style="rounded=0;whiteSpace=wrap;html=1;fillColor=#f8cecc;strokeColor=#b85450;" vertex="1" parent="1">
          <mxGeometry x="530" y="420" width="30" height="60" as="geometry" />
        </mxCell>
        <mxCell id="tq8OV5KKIC8uH16IbvSv-64" value="x&lt;div&gt;y&lt;/div&gt;" style="rounded=0;whiteSpace=wrap;html=1;fillColor=#f8cecc;strokeColor=#b85450;" vertex="1" parent="1">
          <mxGeometry x="560" y="420" width="30" height="60" as="geometry" />
        </mxCell>
        <mxCell id="tq8OV5KKIC8uH16IbvSv-65" value="x&lt;div&gt;y&lt;/div&gt;" style="rounded=0;whiteSpace=wrap;html=1;fillColor=#dae8fc;strokeColor=#6c8ebf;" vertex="1" parent="1">
          <mxGeometry x="590" y="420" width="30" height="60" as="geometry" />
        </mxCell>
        <mxCell id="tq8OV5KKIC8uH16IbvSv-66" value="x&lt;div&gt;y&lt;/div&gt;" style="rounded=0;whiteSpace=wrap;html=1;" vertex="1" parent="1">
          <mxGeometry x="620" y="420" width="30" height="60" as="geometry" />
        </mxCell>
        <mxCell id="tq8OV5KKIC8uH16IbvSv-67" value="x&lt;div&gt;y&lt;/div&gt;" style="rounded=0;whiteSpace=wrap;html=1;" vertex="1" parent="1">
          <mxGeometry x="650" y="420" width="30" height="60" as="geometry" />
        </mxCell>
        <mxCell id="tq8OV5KKIC8uH16IbvSv-68" value="x&lt;div&gt;y&lt;/div&gt;" style="rounded=0;whiteSpace=wrap;html=1;" vertex="1" parent="1">
          <mxGeometry x="680" y="420" width="30" height="60" as="geometry" />
        </mxCell>
        <mxCell id="tq8OV5KKIC8uH16IbvSv-69" value="x&lt;div&gt;y&lt;/div&gt;" style="rounded=0;whiteSpace=wrap;html=1;" vertex="1" parent="1">
          <mxGeometry x="440" y="420" width="30" height="60" as="geometry" />
        </mxCell>
        <mxCell id="tq8OV5KKIC8uH16IbvSv-70" value="x&lt;div&gt;y&lt;/div&gt;" style="rounded=0;whiteSpace=wrap;html=1;" vertex="1" parent="1">
          <mxGeometry x="710" y="420" width="30" height="60" as="geometry" />
        </mxCell>
        <mxCell id="tq8OV5KKIC8uH16IbvSv-71" value="Vector" style="shape=process;whiteSpace=wrap;html=1;backgroundOutline=1;labelPosition=center;verticalLabelPosition=top;align=center;verticalAlign=bottom;" vertex="1" parent="1">
          <mxGeometry x="440" y="510" width="300" height="60" as="geometry" />
        </mxCell>
        <mxCell id="tq8OV5KKIC8uH16IbvSv-72" value="x&lt;div&gt;y&lt;/div&gt;" style="rounded=0;whiteSpace=wrap;html=1;" vertex="1" parent="1">
          <mxGeometry x="470" y="510" width="30" height="60" as="geometry" />
        </mxCell>
        <mxCell id="tq8OV5KKIC8uH16IbvSv-73" value="x&lt;div&gt;y&lt;/div&gt;" style="rounded=0;whiteSpace=wrap;html=1;fillColor=#f8cecc;strokeColor=#b85450;" vertex="1" parent="1">
          <mxGeometry x="500" y="510" width="30" height="60" as="geometry" />
        </mxCell>
        <mxCell id="tq8OV5KKIC8uH16IbvSv-74" value="x&lt;div&gt;y&lt;/div&gt;" style="rounded=0;whiteSpace=wrap;html=1;fillColor=#f8cecc;strokeColor=#b85450;" vertex="1" parent="1">
          <mxGeometry x="530" y="510" width="30" height="60" as="geometry" />
        </mxCell>
        <mxCell id="tq8OV5KKIC8uH16IbvSv-75" value="x&lt;div&gt;y&lt;/div&gt;" style="rounded=0;whiteSpace=wrap;html=1;fillColor=#f8cecc;strokeColor=#b85450;" vertex="1" parent="1">
          <mxGeometry x="560" y="510" width="30" height="60" as="geometry" />
        </mxCell>
        <mxCell id="tq8OV5KKIC8uH16IbvSv-76" value="x&lt;div&gt;y&lt;/div&gt;" style="rounded=0;whiteSpace=wrap;html=1;fillColor=#f8cecc;strokeColor=#b85450;" vertex="1" parent="1">
          <mxGeometry x="590" y="510" width="30" height="60" as="geometry" />
        </mxCell>
        <mxCell id="tq8OV5KKIC8uH16IbvSv-77" value="x&lt;div&gt;y&lt;/div&gt;" style="rounded=0;whiteSpace=wrap;html=1;fillColor=#dae8fc;strokeColor=#6c8ebf;" vertex="1" parent="1">
          <mxGeometry x="620" y="510" width="30" height="60" as="geometry" />
        </mxCell>
        <mxCell id="tq8OV5KKIC8uH16IbvSv-78" value="x&lt;div&gt;y&lt;/div&gt;" style="rounded=0;whiteSpace=wrap;html=1;" vertex="1" parent="1">
          <mxGeometry x="650" y="510" width="30" height="60" as="geometry" />
        </mxCell>
        <mxCell id="tq8OV5KKIC8uH16IbvSv-79" value="x&lt;div&gt;y&lt;/div&gt;" style="rounded=0;whiteSpace=wrap;html=1;" vertex="1" parent="1">
          <mxGeometry x="680" y="510" width="30" height="60" as="geometry" />
        </mxCell>
        <mxCell id="tq8OV5KKIC8uH16IbvSv-80" value="x&lt;div&gt;y&lt;/div&gt;" style="rounded=0;whiteSpace=wrap;html=1;" vertex="1" parent="1">
          <mxGeometry x="440" y="510" width="30" height="60" as="geometry" />
        </mxCell>
        <mxCell id="tq8OV5KKIC8uH16IbvSv-81" value="x&lt;div&gt;y&lt;/div&gt;" style="rounded=0;whiteSpace=wrap;html=1;" vertex="1" parent="1">
          <mxGeometry x="710" y="510" width="30" height="60" as="geometry" />
        </mxCell>
        <mxCell id="tq8OV5KKIC8uH16IbvSv-82" value="Vector" style="shape=process;whiteSpace=wrap;html=1;backgroundOutline=1;labelPosition=center;verticalLabelPosition=top;align=center;verticalAlign=bottom;" vertex="1" parent="1">
          <mxGeometry x="440" y="600" width="300" height="60" as="geometry" />
        </mxCell>
        <mxCell id="tq8OV5KKIC8uH16IbvSv-83" value="x&lt;div&gt;y&lt;/div&gt;" style="rounded=0;whiteSpace=wrap;html=1;" vertex="1" parent="1">
          <mxGeometry x="470" y="600" width="30" height="60" as="geometry" />
        </mxCell>
        <mxCell id="tq8OV5KKIC8uH16IbvSv-84" value="x&lt;div&gt;y&lt;/div&gt;" style="rounded=0;whiteSpace=wrap;html=1;" vertex="1" parent="1">
          <mxGeometry x="500" y="600" width="30" height="60" as="geometry" />
        </mxCell>
        <mxCell id="tq8OV5KKIC8uH16IbvSv-85" value="x&lt;div&gt;y&lt;/div&gt;" style="rounded=0;whiteSpace=wrap;html=1;fillColor=#f8cecc;strokeColor=#b85450;" vertex="1" parent="1">
          <mxGeometry x="530" y="600" width="30" height="60" as="geometry" />
        </mxCell>
        <mxCell id="tq8OV5KKIC8uH16IbvSv-86" value="x&lt;div&gt;y&lt;/div&gt;" style="rounded=0;whiteSpace=wrap;html=1;fillColor=#f8cecc;strokeColor=#b85450;" vertex="1" parent="1">
          <mxGeometry x="560" y="600" width="30" height="60" as="geometry" />
        </mxCell>
        <mxCell id="tq8OV5KKIC8uH16IbvSv-87" value="x&lt;div&gt;y&lt;/div&gt;" style="rounded=0;whiteSpace=wrap;html=1;fillColor=#f8cecc;strokeColor=#b85450;" vertex="1" parent="1">
          <mxGeometry x="590" y="600" width="30" height="60" as="geometry" />
        </mxCell>
        <mxCell id="tq8OV5KKIC8uH16IbvSv-88" value="x&lt;div&gt;y&lt;/div&gt;" style="rounded=0;whiteSpace=wrap;html=1;fillColor=#f8cecc;strokeColor=#b85450;" vertex="1" parent="1">
          <mxGeometry x="620" y="600" width="30" height="60" as="geometry" />
        </mxCell>
        <mxCell id="tq8OV5KKIC8uH16IbvSv-89" value="x&lt;div&gt;y&lt;/div&gt;" style="rounded=0;whiteSpace=wrap;html=1;fillColor=#dae8fc;strokeColor=#6c8ebf;" vertex="1" parent="1">
          <mxGeometry x="650" y="600" width="30" height="60" as="geometry" />
        </mxCell>
        <mxCell id="tq8OV5KKIC8uH16IbvSv-90" value="x&lt;div&gt;y&lt;/div&gt;" style="rounded=0;whiteSpace=wrap;html=1;" vertex="1" parent="1">
          <mxGeometry x="680" y="600" width="30" height="60" as="geometry" />
        </mxCell>
        <mxCell id="tq8OV5KKIC8uH16IbvSv-91" value="x&lt;div&gt;y&lt;/div&gt;" style="rounded=0;whiteSpace=wrap;html=1;" vertex="1" parent="1">
          <mxGeometry x="440" y="600" width="30" height="60" as="geometry" />
        </mxCell>
        <mxCell id="tq8OV5KKIC8uH16IbvSv-92" value="x&lt;div&gt;y&lt;/div&gt;" style="rounded=0;whiteSpace=wrap;html=1;" vertex="1" parent="1">
          <mxGeometry x="710" y="600" width="30" height="60" as="geometry" />
        </mxCell>
      </root>
    </mxGraphModel>
  </diagram>
  <diagram id="pjSfgICusZCx9uQj1dLb" name="model_architecture">
    <mxGraphModel dx="3187" dy="3027" grid="1" gridSize="10" guides="1" tooltips="1" connect="1" arrows="1" fold="1" page="1" pageScale="1" pageWidth="827" pageHeight="1169" math="0" shadow="0">
      <root>
        <mxCell id="0" />
        <mxCell id="1" parent="0" />
        <mxCell id="12o7rkzY92RYLa1HiNfj-6" value="" style="rounded=0;whiteSpace=wrap;html=1;" vertex="1" parent="1">
          <mxGeometry x="40" y="-180" width="960" height="1110" as="geometry" />
        </mxCell>
        <mxCell id="12o7rkzY92RYLa1HiNfj-1" value="Encoder" style="rounded=0;whiteSpace=wrap;html=1;labelPosition=left;verticalLabelPosition=top;align=right;verticalAlign=bottom;" vertex="1" parent="1">
          <mxGeometry x="94" y="240" width="370" height="380" as="geometry" />
        </mxCell>
        <mxCell id="12o7rkzY92RYLa1HiNfj-2" value="" style="rounded=0;whiteSpace=wrap;html=1;" vertex="1" parent="1">
          <mxGeometry x="560" y="20" width="400" height="565" as="geometry" />
        </mxCell>
        <mxCell id="6X3QVLdcZUDTCv73FLqu-3" value="Patchified_images" style="shape=process;whiteSpace=wrap;html=1;backgroundOutline=1;fontSize=10;" vertex="1" parent="1">
          <mxGeometry x="110" y="1040" width="120" height="60" as="geometry" />
        </mxCell>
        <mxCell id="6X3QVLdcZUDTCv73FLqu-13" style="edgeStyle=orthogonalEdgeStyle;rounded=0;orthogonalLoop=1;jettySize=auto;html=1;exitX=0.5;exitY=0;exitDx=0;exitDy=0;entryX=0.5;entryY=1;entryDx=0;entryDy=0;" edge="1" parent="1" source="6X3QVLdcZUDTCv73FLqu-4" target="12o7rkzY92RYLa1HiNfj-1">
          <mxGeometry relative="1" as="geometry">
            <Array as="points">
              <mxPoint x="330" y="760" />
              <mxPoint x="279" y="760" />
            </Array>
          </mxGeometry>
        </mxCell>
        <mxCell id="6X3QVLdcZUDTCv73FLqu-4" value="Patchified_masks" style="shape=process;whiteSpace=wrap;html=1;backgroundOutline=1;fontSize=10;" vertex="1" parent="1">
          <mxGeometry x="270" y="1040" width="120" height="60" as="geometry" />
        </mxCell>
        <mxCell id="6X3QVLdcZUDTCv73FLqu-15" style="edgeStyle=orthogonalEdgeStyle;rounded=0;orthogonalLoop=1;jettySize=auto;html=1;exitX=0.5;exitY=0;exitDx=0;exitDy=0;entryX=0.5;entryY=1;entryDx=0;entryDy=0;" edge="1" parent="1" source="6X3QVLdcZUDTCv73FLqu-5" target="6X3QVLdcZUDTCv73FLqu-14">
          <mxGeometry relative="1" as="geometry" />
        </mxCell>
        <mxCell id="6X3QVLdcZUDTCv73FLqu-5" value="Target_sequences" style="shape=process;whiteSpace=wrap;html=1;backgroundOutline=1;fontSize=10;" vertex="1" parent="1">
          <mxGeometry x="665" y="1040" width="120" height="60" as="geometry" />
        </mxCell>
        <mxCell id="6X3QVLdcZUDTCv73FLqu-6" style="edgeStyle=orthogonalEdgeStyle;rounded=0;orthogonalLoop=1;jettySize=auto;html=1;exitX=0.5;exitY=0;exitDx=0;exitDy=0;entryX=0.5;entryY=1;entryDx=0;entryDy=0;" edge="1" parent="1" source="6X3QVLdcZUDTCv73FLqu-3" target="6X3QVLdcZUDTCv73FLqu-9">
          <mxGeometry relative="1" as="geometry">
            <Array as="points">
              <mxPoint x="170" y="960" />
              <mxPoint x="205" y="960" />
            </Array>
          </mxGeometry>
        </mxCell>
        <mxCell id="6X3QVLdcZUDTCv73FLqu-11" style="edgeStyle=orthogonalEdgeStyle;rounded=0;orthogonalLoop=1;jettySize=auto;html=1;exitX=0.5;exitY=0;exitDx=0;exitDy=0;entryX=0.5;entryY=1;entryDx=0;entryDy=0;" edge="1" parent="1" source="6X3QVLdcZUDTCv73FLqu-9" target="6X3QVLdcZUDTCv73FLqu-10">
          <mxGeometry relative="1" as="geometry" />
        </mxCell>
        <mxCell id="6X3QVLdcZUDTCv73FLqu-9" value="Embeddings from patches" style="rounded=1;whiteSpace=wrap;html=1;" vertex="1" parent="1">
          <mxGeometry x="120" y="850" width="170" height="40" as="geometry" />
        </mxCell>
        <mxCell id="6X3QVLdcZUDTCv73FLqu-12" style="edgeStyle=orthogonalEdgeStyle;rounded=0;orthogonalLoop=1;jettySize=auto;html=1;exitX=0.5;exitY=0;exitDx=0;exitDy=0;" edge="1" parent="1" source="6X3QVLdcZUDTCv73FLqu-10">
          <mxGeometry relative="1" as="geometry">
            <mxPoint x="279" y="620" as="targetPoint" />
            <Array as="points">
              <mxPoint x="205" y="760" />
              <mxPoint x="279" y="760" />
            </Array>
          </mxGeometry>
        </mxCell>
        <mxCell id="6X3QVLdcZUDTCv73FLqu-10" value="positional_embeddings" style="rounded=1;whiteSpace=wrap;html=1;" vertex="1" parent="1">
          <mxGeometry x="120" y="790" width="170" height="40" as="geometry" />
        </mxCell>
        <mxCell id="6X3QVLdcZUDTCv73FLqu-18" style="edgeStyle=orthogonalEdgeStyle;rounded=0;orthogonalLoop=1;jettySize=auto;html=1;exitX=0.5;exitY=0;exitDx=0;exitDy=0;entryX=0.5;entryY=1;entryDx=0;entryDy=0;" edge="1" parent="1" source="6X3QVLdcZUDTCv73FLqu-14" target="6X3QVLdcZUDTCv73FLqu-16">
          <mxGeometry relative="1" as="geometry" />
        </mxCell>
        <mxCell id="6X3QVLdcZUDTCv73FLqu-19" style="edgeStyle=orthogonalEdgeStyle;rounded=0;orthogonalLoop=1;jettySize=auto;html=1;exitX=0.5;exitY=0;exitDx=0;exitDy=0;entryX=0.5;entryY=1;entryDx=0;entryDy=0;" edge="1" parent="1" source="6X3QVLdcZUDTCv73FLqu-14" target="6X3QVLdcZUDTCv73FLqu-17">
          <mxGeometry relative="1" as="geometry" />
        </mxCell>
        <mxCell id="6X3QVLdcZUDTCv73FLqu-14" value="normalize_sequences" style="rounded=1;whiteSpace=wrap;html=1;" vertex="1" parent="1">
          <mxGeometry x="660" y="880" width="130" height="30" as="geometry" />
        </mxCell>
        <mxCell id="6X3QVLdcZUDTCv73FLqu-21" style="edgeStyle=orthogonalEdgeStyle;rounded=0;orthogonalLoop=1;jettySize=auto;html=1;exitX=0.5;exitY=0;exitDx=0;exitDy=0;entryX=0.5;entryY=1;entryDx=0;entryDy=0;" edge="1" parent="1" source="6X3QVLdcZUDTCv73FLqu-16" target="6X3QVLdcZUDTCv73FLqu-20">
          <mxGeometry relative="1" as="geometry" />
        </mxCell>
        <mxCell id="6X3QVLdcZUDTCv73FLqu-16" value="Target_sequences" style="shape=process;whiteSpace=wrap;html=1;backgroundOutline=1;fontSize=10;" vertex="1" parent="1">
          <mxGeometry x="590" y="810" width="120" height="30" as="geometry" />
        </mxCell>
        <mxCell id="6X3QVLdcZUDTCv73FLqu-32" style="edgeStyle=orthogonalEdgeStyle;rounded=0;orthogonalLoop=1;jettySize=auto;html=1;exitX=0.5;exitY=0;exitDx=0;exitDy=0;entryX=0.5;entryY=1;entryDx=0;entryDy=0;" edge="1" parent="1" source="6X3QVLdcZUDTCv73FLqu-17" target="6X3QVLdcZUDTCv73FLqu-55">
          <mxGeometry relative="1" as="geometry">
            <Array as="points">
              <mxPoint x="800" y="620" />
              <mxPoint x="760" y="620" />
            </Array>
          </mxGeometry>
        </mxCell>
        <mxCell id="6X3QVLdcZUDTCv73FLqu-17" value="target_masks" style="shape=process;whiteSpace=wrap;html=1;backgroundOutline=1;fontSize=10;" vertex="1" parent="1">
          <mxGeometry x="740" y="810" width="120" height="30" as="geometry" />
        </mxCell>
        <mxCell id="6X3QVLdcZUDTCv73FLqu-24" style="edgeStyle=orthogonalEdgeStyle;rounded=0;orthogonalLoop=1;jettySize=auto;html=1;exitX=0.5;exitY=0;exitDx=0;exitDy=0;entryX=0.5;entryY=1;entryDx=0;entryDy=0;" edge="1" parent="1" source="6X3QVLdcZUDTCv73FLqu-20" target="6X3QVLdcZUDTCv73FLqu-23">
          <mxGeometry relative="1" as="geometry" />
        </mxCell>
        <mxCell id="6X3QVLdcZUDTCv73FLqu-20" value="embedding_sequences" style="rounded=1;whiteSpace=wrap;html=1;" vertex="1" parent="1">
          <mxGeometry x="560" y="760" width="170" height="30" as="geometry" />
        </mxCell>
        <mxCell id="6X3QVLdcZUDTCv73FLqu-29" style="edgeStyle=orthogonalEdgeStyle;rounded=0;orthogonalLoop=1;jettySize=auto;html=1;exitX=0;exitY=0.5;exitDx=0;exitDy=0;entryX=1;entryY=0.5;entryDx=0;entryDy=0;startArrow=async;startFill=1;endArrow=async;endFill=1;" edge="1" parent="1" source="6X3QVLdcZUDTCv73FLqu-23" target="6X3QVLdcZUDTCv73FLqu-26">
          <mxGeometry relative="1" as="geometry" />
        </mxCell>
        <mxCell id="6X3QVLdcZUDTCv73FLqu-30" style="edgeStyle=orthogonalEdgeStyle;rounded=0;orthogonalLoop=1;jettySize=auto;html=1;exitX=0.5;exitY=0;exitDx=0;exitDy=0;entryX=0.5;entryY=1;entryDx=0;entryDy=0;" edge="1" parent="1" source="6X3QVLdcZUDTCv73FLqu-23" target="6X3QVLdcZUDTCv73FLqu-25">
          <mxGeometry relative="1" as="geometry" />
        </mxCell>
        <mxCell id="6X3QVLdcZUDTCv73FLqu-23" value="Pred Token ?" style="rounded=1;whiteSpace=wrap;html=1;" vertex="1" parent="1">
          <mxGeometry x="560" y="710" width="170" height="30" as="geometry" />
        </mxCell>
        <mxCell id="6X3QVLdcZUDTCv73FLqu-31" style="edgeStyle=orthogonalEdgeStyle;rounded=0;orthogonalLoop=1;jettySize=auto;html=1;exitX=0.5;exitY=0;exitDx=0;exitDy=0;entryX=0.5;entryY=1;entryDx=0;entryDy=0;" edge="1" parent="1" source="6X3QVLdcZUDTCv73FLqu-25" target="6X3QVLdcZUDTCv73FLqu-55">
          <mxGeometry relative="1" as="geometry">
            <Array as="points">
              <mxPoint x="645" y="620" />
              <mxPoint x="760" y="620" />
              <mxPoint x="760" y="550" />
            </Array>
          </mxGeometry>
        </mxCell>
        <mxCell id="6X3QVLdcZUDTCv73FLqu-57" style="edgeStyle=orthogonalEdgeStyle;rounded=0;orthogonalLoop=1;jettySize=auto;html=1;exitX=0.5;exitY=0;exitDx=0;exitDy=0;entryX=1;entryY=0.5;entryDx=0;entryDy=0;" edge="1" parent="1" source="6X3QVLdcZUDTCv73FLqu-25" target="6X3QVLdcZUDTCv73FLqu-56">
          <mxGeometry relative="1" as="geometry">
            <Array as="points">
              <mxPoint x="645" y="620" />
              <mxPoint x="760" y="620" />
              <mxPoint x="760" y="560" />
              <mxPoint x="850" y="560" />
              <mxPoint x="850" y="450" />
            </Array>
          </mxGeometry>
        </mxCell>
        <mxCell id="6X3QVLdcZUDTCv73FLqu-25" value="positional_embeddings" style="rounded=1;whiteSpace=wrap;html=1;" vertex="1" parent="1">
          <mxGeometry x="560" y="660" width="170" height="30" as="geometry" />
        </mxCell>
        <mxCell id="6X3QVLdcZUDTCv73FLqu-26" value="embeded&lt;div&gt;sequences&lt;/div&gt;" style="shape=process;whiteSpace=wrap;html=1;backgroundOutline=1;fontSize=10;" vertex="1" parent="1">
          <mxGeometry x="400" y="710" width="140" height="30" as="geometry" />
        </mxCell>
        <mxCell id="6X3QVLdcZUDTCv73FLqu-27" value="P" style="rounded=0;whiteSpace=wrap;html=1;fillColor=#dae8fc;strokeColor=#6c8ebf;" vertex="1" parent="1">
          <mxGeometry x="505" y="710" width="20" height="30" as="geometry" />
        </mxCell>
        <mxCell id="6X3QVLdcZUDTCv73FLqu-49" style="edgeStyle=orthogonalEdgeStyle;rounded=0;orthogonalLoop=1;jettySize=auto;html=1;exitX=0.5;exitY=0;exitDx=0;exitDy=0;entryX=0.5;entryY=1;entryDx=0;entryDy=0;" edge="1" parent="1" source="6X3QVLdcZUDTCv73FLqu-34" target="6X3QVLdcZUDTCv73FLqu-46">
          <mxGeometry relative="1" as="geometry" />
        </mxCell>
        <mxCell id="6X3QVLdcZUDTCv73FLqu-34" value="Multi-head&lt;div&gt;Attention&lt;/div&gt;" style="rounded=1;whiteSpace=wrap;html=1;" vertex="1" parent="1">
          <mxGeometry x="211" y="525" width="136" height="60" as="geometry" />
        </mxCell>
        <mxCell id="6X3QVLdcZUDTCv73FLqu-37" style="edgeStyle=orthogonalEdgeStyle;rounded=0;orthogonalLoop=1;jettySize=auto;html=1;exitX=0.5;exitY=1;exitDx=0;exitDy=0;entryX=0.5;entryY=1;entryDx=0;entryDy=0;" edge="1" parent="1" source="12o7rkzY92RYLa1HiNfj-1" target="6X3QVLdcZUDTCv73FLqu-34">
          <mxGeometry relative="1" as="geometry" />
        </mxCell>
        <mxCell id="6X3QVLdcZUDTCv73FLqu-52" style="edgeStyle=orthogonalEdgeStyle;rounded=0;orthogonalLoop=1;jettySize=auto;html=1;exitX=0.5;exitY=0;exitDx=0;exitDy=0;entryX=0.5;entryY=1;entryDx=0;entryDy=0;" edge="1" parent="1" source="6X3QVLdcZUDTCv73FLqu-38" target="6X3QVLdcZUDTCv73FLqu-51">
          <mxGeometry relative="1" as="geometry" />
        </mxCell>
        <mxCell id="6X3QVLdcZUDTCv73FLqu-38" value="Feed-Forward" style="rounded=1;whiteSpace=wrap;html=1;verticalAlign=middle;labelPosition=left;verticalLabelPosition=middle;align=right;" vertex="1" parent="1">
          <mxGeometry x="206" y="320" width="146" height="140" as="geometry" />
        </mxCell>
        <mxCell id="6X3QVLdcZUDTCv73FLqu-39" value="Expand" style="rounded=0;whiteSpace=wrap;html=1;" vertex="1" parent="1">
          <mxGeometry x="219" y="420" width="120" height="30" as="geometry" />
        </mxCell>
        <mxCell id="6X3QVLdcZUDTCv73FLqu-40" value="Activation&lt;span style=&quot;color: rgba(0, 0, 0, 0); font-family: monospace; font-size: 0px; text-align: start; text-wrap: nowrap;&quot;&gt;%3CmxGraphModel%3E%3Croot%3E%3CmxCell%20id%3D%220%22%2F%3E%3CmxCell%20id%3D%221%22%20parent%3D%220%22%2F%3E%3CmxCell%20id%3D%222%22%20value%3D%22Expand%22%20style%3D%22rounded%3D0%3BwhiteSpace%3Dwrap%3Bhtml%3D1%3B%22%20vertex%3D%221%22%20parent%3D%221%22%3E%3CmxGeometry%20x%3D%22230%22%20y%3D%22420%22%20width%3D%22120%22%20height%3D%2230%22%20as%3D%22geometry%22%2F%3E%3C%2FmxCell%3E%3C%2Froot%3E%3C%2FmxGraphModel%3E&lt;/span&gt;" style="rounded=0;whiteSpace=wrap;html=1;" vertex="1" parent="1">
          <mxGeometry x="219" y="375" width="120" height="30" as="geometry" />
        </mxCell>
        <mxCell id="6X3QVLdcZUDTCv73FLqu-41" value="Shrink" style="rounded=0;whiteSpace=wrap;html=1;" vertex="1" parent="1">
          <mxGeometry x="219" y="330" width="120" height="30" as="geometry" />
        </mxCell>
        <mxCell id="6X3QVLdcZUDTCv73FLqu-43" style="edgeStyle=orthogonalEdgeStyle;rounded=0;orthogonalLoop=1;jettySize=auto;html=1;exitX=0.5;exitY=1;exitDx=0;exitDy=0;" edge="1" parent="1" source="12o7rkzY92RYLa1HiNfj-1">
          <mxGeometry relative="1" as="geometry">
            <mxPoint x="289" y="630" as="sourcePoint" />
            <mxPoint x="340" y="500" as="targetPoint" />
            <Array as="points">
              <mxPoint x="279" y="610" />
              <mxPoint x="380" y="610" />
              <mxPoint x="380" y="500" />
              <mxPoint x="339" y="500" />
            </Array>
          </mxGeometry>
        </mxCell>
        <mxCell id="6X3QVLdcZUDTCv73FLqu-50" style="edgeStyle=orthogonalEdgeStyle;rounded=0;orthogonalLoop=1;jettySize=auto;html=1;exitX=0.5;exitY=0;exitDx=0;exitDy=0;entryX=0.5;entryY=1;entryDx=0;entryDy=0;" edge="1" parent="1" source="6X3QVLdcZUDTCv73FLqu-46" target="6X3QVLdcZUDTCv73FLqu-38">
          <mxGeometry relative="1" as="geometry" />
        </mxCell>
        <mxCell id="6X3QVLdcZUDTCv73FLqu-53" style="edgeStyle=orthogonalEdgeStyle;rounded=0;orthogonalLoop=1;jettySize=auto;html=1;exitX=0.5;exitY=0;exitDx=0;exitDy=0;entryX=1;entryY=0.5;entryDx=0;entryDy=0;" edge="1" parent="1" source="6X3QVLdcZUDTCv73FLqu-46" target="6X3QVLdcZUDTCv73FLqu-51">
          <mxGeometry relative="1" as="geometry">
            <Array as="points">
              <mxPoint x="279" y="480" />
              <mxPoint x="380" y="480" />
              <mxPoint x="380" y="290" />
            </Array>
          </mxGeometry>
        </mxCell>
        <mxCell id="6X3QVLdcZUDTCv73FLqu-46" value="Layer Norm" style="rounded=1;whiteSpace=wrap;html=1;" vertex="1" parent="1">
          <mxGeometry x="219" y="490" width="120" height="20" as="geometry" />
        </mxCell>
        <mxCell id="6X3QVLdcZUDTCv73FLqu-61" style="edgeStyle=orthogonalEdgeStyle;rounded=0;orthogonalLoop=1;jettySize=auto;html=1;exitX=0.5;exitY=0;exitDx=0;exitDy=0;entryX=0.5;entryY=1;entryDx=0;entryDy=0;" edge="1" parent="1" source="6X3QVLdcZUDTCv73FLqu-51" target="6X3QVLdcZUDTCv73FLqu-59">
          <mxGeometry relative="1" as="geometry" />
        </mxCell>
        <mxCell id="6X3QVLdcZUDTCv73FLqu-51" value="Layer Norm" style="rounded=1;whiteSpace=wrap;html=1;" vertex="1" parent="1">
          <mxGeometry x="219" y="280" width="120" height="20" as="geometry" />
        </mxCell>
        <mxCell id="6X3QVLdcZUDTCv73FLqu-54" style="edgeStyle=orthogonalEdgeStyle;rounded=0;orthogonalLoop=1;jettySize=auto;html=1;exitX=0.5;exitY=0;exitDx=0;exitDy=0;entryX=0.25;entryY=1;entryDx=0;entryDy=0;" edge="1" parent="1" source="6X3QVLdcZUDTCv73FLqu-51" target="6X3QVLdcZUDTCv73FLqu-59">
          <mxGeometry relative="1" as="geometry" />
        </mxCell>
        <mxCell id="6X3QVLdcZUDTCv73FLqu-58" style="edgeStyle=orthogonalEdgeStyle;rounded=0;orthogonalLoop=1;jettySize=auto;html=1;exitX=0.5;exitY=0;exitDx=0;exitDy=0;entryX=0.5;entryY=1;entryDx=0;entryDy=0;" edge="1" parent="1" source="6X3QVLdcZUDTCv73FLqu-55" target="6X3QVLdcZUDTCv73FLqu-56">
          <mxGeometry relative="1" as="geometry" />
        </mxCell>
        <mxCell id="6X3QVLdcZUDTCv73FLqu-55" value="Multi-head&lt;div&gt;Attention&lt;/div&gt;" style="rounded=1;whiteSpace=wrap;html=1;" vertex="1" parent="1">
          <mxGeometry x="692" y="480" width="136" height="60" as="geometry" />
        </mxCell>
        <mxCell id="6X3QVLdcZUDTCv73FLqu-60" style="edgeStyle=orthogonalEdgeStyle;rounded=0;orthogonalLoop=1;jettySize=auto;html=1;exitX=0.5;exitY=0;exitDx=0;exitDy=0;entryX=0.75;entryY=1;entryDx=0;entryDy=0;" edge="1" parent="1" source="6X3QVLdcZUDTCv73FLqu-56" target="6X3QVLdcZUDTCv73FLqu-59">
          <mxGeometry relative="1" as="geometry" />
        </mxCell>
        <mxCell id="6X3QVLdcZUDTCv73FLqu-63" style="edgeStyle=orthogonalEdgeStyle;rounded=0;orthogonalLoop=1;jettySize=auto;html=1;exitX=0.5;exitY=0;exitDx=0;exitDy=0;entryX=1;entryY=0.5;entryDx=0;entryDy=0;" edge="1" parent="1" source="6X3QVLdcZUDTCv73FLqu-56" target="6X3QVLdcZUDTCv73FLqu-62">
          <mxGeometry relative="1" as="geometry">
            <Array as="points">
              <mxPoint x="760" y="380" />
              <mxPoint x="850" y="380" />
              <mxPoint x="850" y="220" />
            </Array>
          </mxGeometry>
        </mxCell>
        <mxCell id="6X3QVLdcZUDTCv73FLqu-56" value="Layer Norm" style="rounded=1;whiteSpace=wrap;html=1;" vertex="1" parent="1">
          <mxGeometry x="700" y="440" width="120" height="20" as="geometry" />
        </mxCell>
        <mxCell id="6X3QVLdcZUDTCv73FLqu-64" style="edgeStyle=orthogonalEdgeStyle;rounded=0;orthogonalLoop=1;jettySize=auto;html=1;exitX=0.5;exitY=0;exitDx=0;exitDy=0;entryX=0.5;entryY=1;entryDx=0;entryDy=0;" edge="1" parent="1" source="6X3QVLdcZUDTCv73FLqu-59" target="6X3QVLdcZUDTCv73FLqu-62">
          <mxGeometry relative="1" as="geometry" />
        </mxCell>
        <mxCell id="6X3QVLdcZUDTCv73FLqu-59" value="Multi-head&lt;div&gt;Attention&lt;/div&gt;" style="rounded=1;whiteSpace=wrap;html=1;" vertex="1" parent="1">
          <mxGeometry x="692" y="260" width="136" height="60" as="geometry" />
        </mxCell>
        <mxCell id="6X3QVLdcZUDTCv73FLqu-67" style="edgeStyle=orthogonalEdgeStyle;rounded=0;orthogonalLoop=1;jettySize=auto;html=1;exitX=0.5;exitY=0;exitDx=0;exitDy=0;entryX=0.5;entryY=1;entryDx=0;entryDy=0;" edge="1" parent="1" source="6X3QVLdcZUDTCv73FLqu-62" target="6X3QVLdcZUDTCv73FLqu-66">
          <mxGeometry relative="1" as="geometry" />
        </mxCell>
        <mxCell id="6X3QVLdcZUDTCv73FLqu-68" style="edgeStyle=orthogonalEdgeStyle;rounded=0;orthogonalLoop=1;jettySize=auto;html=1;exitX=0.5;exitY=0;exitDx=0;exitDy=0;entryX=1;entryY=0.5;entryDx=0;entryDy=0;" edge="1" parent="1" source="6X3QVLdcZUDTCv73FLqu-62" target="6X3QVLdcZUDTCv73FLqu-65">
          <mxGeometry relative="1" as="geometry">
            <Array as="points">
              <mxPoint x="760" y="190" />
              <mxPoint x="850" y="190" />
              <mxPoint x="850" y="80" />
            </Array>
          </mxGeometry>
        </mxCell>
        <mxCell id="6X3QVLdcZUDTCv73FLqu-62" value="Layer Norm" style="rounded=1;whiteSpace=wrap;html=1;" vertex="1" parent="1">
          <mxGeometry x="700" y="210" width="120" height="20" as="geometry" />
        </mxCell>
        <mxCell id="6X3QVLdcZUDTCv73FLqu-77" style="edgeStyle=orthogonalEdgeStyle;rounded=0;orthogonalLoop=1;jettySize=auto;html=1;exitX=0.5;exitY=0;exitDx=0;exitDy=0;entryX=0.5;entryY=1;entryDx=0;entryDy=0;" edge="1" parent="1" source="6X3QVLdcZUDTCv73FLqu-65" target="6X3QVLdcZUDTCv73FLqu-75">
          <mxGeometry relative="1" as="geometry" />
        </mxCell>
        <mxCell id="6X3QVLdcZUDTCv73FLqu-78" style="edgeStyle=orthogonalEdgeStyle;rounded=0;orthogonalLoop=1;jettySize=auto;html=1;exitX=0.5;exitY=0;exitDx=0;exitDy=0;entryX=0.5;entryY=1;entryDx=0;entryDy=0;" edge="1" parent="1" source="6X3QVLdcZUDTCv73FLqu-65" target="6X3QVLdcZUDTCv73FLqu-76">
          <mxGeometry relative="1" as="geometry" />
        </mxCell>
        <mxCell id="6X3QVLdcZUDTCv73FLqu-65" value="Layer Norm" style="rounded=1;whiteSpace=wrap;html=1;" vertex="1" parent="1">
          <mxGeometry x="699" y="70" width="120" height="20" as="geometry" />
        </mxCell>
        <mxCell id="6X3QVLdcZUDTCv73FLqu-70" style="edgeStyle=orthogonalEdgeStyle;rounded=0;orthogonalLoop=1;jettySize=auto;html=1;exitX=0.5;exitY=0;exitDx=0;exitDy=0;entryX=0.5;entryY=1;entryDx=0;entryDy=0;" edge="1" parent="1" source="6X3QVLdcZUDTCv73FLqu-66" target="6X3QVLdcZUDTCv73FLqu-65">
          <mxGeometry relative="1" as="geometry" />
        </mxCell>
        <mxCell id="6X3QVLdcZUDTCv73FLqu-66" value="FFN" style="rounded=1;whiteSpace=wrap;html=1;" vertex="1" parent="1">
          <mxGeometry x="691" y="110" width="136" height="60" as="geometry" />
        </mxCell>
        <mxCell id="6X3QVLdcZUDTCv73FLqu-84" style="edgeStyle=orthogonalEdgeStyle;rounded=0;orthogonalLoop=1;jettySize=auto;html=1;exitX=0.5;exitY=0;exitDx=0;exitDy=0;entryX=0.5;entryY=1;entryDx=0;entryDy=0;" edge="1" parent="1" source="6X3QVLdcZUDTCv73FLqu-75" target="6X3QVLdcZUDTCv73FLqu-82">
          <mxGeometry relative="1" as="geometry" />
        </mxCell>
        <mxCell id="6X3QVLdcZUDTCv73FLqu-75" value="Ouput_MLP" style="rounded=0;whiteSpace=wrap;html=1;" vertex="1" parent="1">
          <mxGeometry x="620" y="-80" width="120" height="30" as="geometry" />
        </mxCell>
        <mxCell id="6X3QVLdcZUDTCv73FLqu-85" style="edgeStyle=orthogonalEdgeStyle;rounded=0;orthogonalLoop=1;jettySize=auto;html=1;exitX=0.5;exitY=0;exitDx=0;exitDy=0;entryX=0.5;entryY=1;entryDx=0;entryDy=0;" edge="1" parent="1" source="6X3QVLdcZUDTCv73FLqu-76" target="6X3QVLdcZUDTCv73FLqu-83">
          <mxGeometry relative="1" as="geometry" />
        </mxCell>
        <mxCell id="6X3QVLdcZUDTCv73FLqu-76" value="STOP_MLP" style="rounded=0;whiteSpace=wrap;html=1;" vertex="1" parent="1">
          <mxGeometry x="800" y="-80" width="110" height="30" as="geometry" />
        </mxCell>
        <mxCell id="6X3QVLdcZUDTCv73FLqu-82" value="x&lt;div&gt;y&lt;/div&gt;" style="whiteSpace=wrap;html=1;aspect=fixed;" vertex="1" parent="1">
          <mxGeometry x="660" y="-140" width="40" height="40" as="geometry" />
        </mxCell>
        <mxCell id="6X3QVLdcZUDTCv73FLqu-83" value="Bool" style="whiteSpace=wrap;html=1;aspect=fixed;" vertex="1" parent="1">
          <mxGeometry x="835" y="-140" width="40" height="40" as="geometry" />
        </mxCell>
      </root>
    </mxGraphModel>
  </diagram>
  <diagram name="inference_loop" id="WJhXS8sEjHHrCVItO-RF">
    <mxGraphModel dx="1434" dy="836" grid="1" gridSize="10" guides="1" tooltips="1" connect="1" arrows="1" fold="1" page="1" pageScale="1" pageWidth="827" pageHeight="1169" math="0" shadow="0">
      <root>
        <mxCell id="syl_iyW7tfhE2moBdS4G-0" />
        <mxCell id="syl_iyW7tfhE2moBdS4G-1" parent="syl_iyW7tfhE2moBdS4G-0" />
        <mxCell id="syl_iyW7tfhE2moBdS4G-2" value="" style="rounded=0;whiteSpace=wrap;html=1;" vertex="1" parent="syl_iyW7tfhE2moBdS4G-1">
          <mxGeometry x="140" y="160" width="480" height="520" as="geometry" />
        </mxCell>
        <mxCell id="syl_iyW7tfhE2moBdS4G-3" value="Encoder" style="rounded=0;whiteSpace=wrap;html=1;labelPosition=center;verticalLabelPosition=middle;align=center;verticalAlign=middle;" vertex="1" parent="syl_iyW7tfhE2moBdS4G-1">
          <mxGeometry x="214" y="430" width="106" height="190" as="geometry" />
        </mxCell>
        <mxCell id="f2WcFRh0TZJ79hfww70o-41" style="edgeStyle=orthogonalEdgeStyle;rounded=0;orthogonalLoop=1;jettySize=auto;html=1;exitX=0.5;exitY=0;exitDx=0;exitDy=0;entryX=0;entryY=0.5;entryDx=0;entryDy=0;" edge="1" parent="syl_iyW7tfhE2moBdS4G-1" source="syl_iyW7tfhE2moBdS4G-4" target="syl_iyW7tfhE2moBdS4G-67">
          <mxGeometry relative="1" as="geometry" />
        </mxCell>
        <mxCell id="syl_iyW7tfhE2moBdS4G-4" value="Decoder" style="rounded=0;whiteSpace=wrap;html=1;" vertex="1" parent="syl_iyW7tfhE2moBdS4G-1">
          <mxGeometry x="390" y="250" width="130" height="370" as="geometry" />
        </mxCell>
        <mxCell id="f2WcFRh0TZJ79hfww70o-45" style="edgeStyle=orthogonalEdgeStyle;rounded=0;orthogonalLoop=1;jettySize=auto;html=1;exitX=1;exitY=0.5;exitDx=0;exitDy=0;entryX=0.5;entryY=1;entryDx=0;entryDy=0;" edge="1" parent="syl_iyW7tfhE2moBdS4G-1" source="syl_iyW7tfhE2moBdS4G-5" target="syl_iyW7tfhE2moBdS4G-3">
          <mxGeometry relative="1" as="geometry" />
        </mxCell>
        <mxCell id="syl_iyW7tfhE2moBdS4G-5" value="Patchified_image" style="shape=process;whiteSpace=wrap;html=1;backgroundOutline=1;fontSize=10;" vertex="1" parent="syl_iyW7tfhE2moBdS4G-1">
          <mxGeometry x="100" y="755" width="120" height="30" as="geometry" />
        </mxCell>
        <mxCell id="f2WcFRh0TZJ79hfww70o-44" style="edgeStyle=orthogonalEdgeStyle;rounded=0;orthogonalLoop=1;jettySize=auto;html=1;exitX=1;exitY=0.5;exitDx=0;exitDy=0;entryX=0.5;entryY=1;entryDx=0;entryDy=0;" edge="1" parent="syl_iyW7tfhE2moBdS4G-1" source="syl_iyW7tfhE2moBdS4G-7" target="syl_iyW7tfhE2moBdS4G-3">
          <mxGeometry relative="1" as="geometry" />
        </mxCell>
        <mxCell id="syl_iyW7tfhE2moBdS4G-7" value="Patchified_mask" style="shape=process;whiteSpace=wrap;html=1;backgroundOutline=1;fontSize=10;" vertex="1" parent="syl_iyW7tfhE2moBdS4G-1">
          <mxGeometry x="100" y="800" width="120" height="30" as="geometry" />
        </mxCell>
        <mxCell id="f2WcFRh0TZJ79hfww70o-17" style="edgeStyle=orthogonalEdgeStyle;rounded=0;orthogonalLoop=1;jettySize=auto;html=1;exitX=1;exitY=0.5;exitDx=0;exitDy=0;entryX=0;entryY=0.5;entryDx=0;entryDy=0;" edge="1" parent="syl_iyW7tfhE2moBdS4G-1" source="syl_iyW7tfhE2moBdS4G-9" target="f2WcFRh0TZJ79hfww70o-13">
          <mxGeometry relative="1" as="geometry" />
        </mxCell>
        <mxCell id="syl_iyW7tfhE2moBdS4G-9" value="Target_sequences" style="shape=process;whiteSpace=wrap;html=1;backgroundOutline=1;fontSize=10;" vertex="1" parent="syl_iyW7tfhE2moBdS4G-1">
          <mxGeometry x="170" y="880" width="120" height="60" as="geometry" />
        </mxCell>
        <mxCell id="f2WcFRh0TZJ79hfww70o-7" style="edgeStyle=orthogonalEdgeStyle;rounded=0;orthogonalLoop=1;jettySize=auto;html=1;exitX=0.5;exitY=1;exitDx=0;exitDy=0;entryX=1;entryY=0.5;entryDx=0;entryDy=0;" edge="1" parent="syl_iyW7tfhE2moBdS4G-1" source="syl_iyW7tfhE2moBdS4G-66" target="f2WcFRh0TZJ79hfww70o-6">
          <mxGeometry relative="1" as="geometry" />
        </mxCell>
        <mxCell id="syl_iyW7tfhE2moBdS4G-66" value="x&lt;div&gt;y&lt;/div&gt;" style="whiteSpace=wrap;html=1;aspect=fixed;fillColor=#e51400;fontColor=#ffffff;strokeColor=#B20000;" vertex="1" parent="syl_iyW7tfhE2moBdS4G-1">
          <mxGeometry x="650" y="440" width="40" height="40" as="geometry" />
        </mxCell>
        <mxCell id="f2WcFRh0TZJ79hfww70o-40" style="edgeStyle=orthogonalEdgeStyle;rounded=0;orthogonalLoop=1;jettySize=auto;html=1;exitX=1;exitY=0.5;exitDx=0;exitDy=0;entryX=0;entryY=0.5;entryDx=0;entryDy=0;" edge="1" parent="syl_iyW7tfhE2moBdS4G-1" source="syl_iyW7tfhE2moBdS4G-67" target="f2WcFRh0TZJ79hfww70o-32">
          <mxGeometry relative="1" as="geometry" />
        </mxCell>
        <mxCell id="f2WcFRh0TZJ79hfww70o-42" style="edgeStyle=orthogonalEdgeStyle;rounded=0;orthogonalLoop=1;jettySize=auto;html=1;exitX=0.5;exitY=1;exitDx=0;exitDy=0;entryX=0.5;entryY=0;entryDx=0;entryDy=0;" edge="1" parent="syl_iyW7tfhE2moBdS4G-1" source="syl_iyW7tfhE2moBdS4G-67" target="syl_iyW7tfhE2moBdS4G-66">
          <mxGeometry relative="1" as="geometry" />
        </mxCell>
        <mxCell id="syl_iyW7tfhE2moBdS4G-67" value="STOP" style="whiteSpace=wrap;html=1;aspect=fixed;" vertex="1" parent="syl_iyW7tfhE2moBdS4G-1">
          <mxGeometry x="650" y="180" width="40" height="40" as="geometry" />
        </mxCell>
        <mxCell id="f2WcFRh0TZJ79hfww70o-1" style="edgeStyle=orthogonalEdgeStyle;rounded=0;orthogonalLoop=1;jettySize=auto;html=1;exitX=1;exitY=0.25;exitDx=0;exitDy=0;entryX=0;entryY=0.614;entryDx=0;entryDy=0;entryPerimeter=0;" edge="1" parent="syl_iyW7tfhE2moBdS4G-1" source="syl_iyW7tfhE2moBdS4G-3" target="syl_iyW7tfhE2moBdS4G-4">
          <mxGeometry relative="1" as="geometry" />
        </mxCell>
        <mxCell id="f2WcFRh0TZJ79hfww70o-19" style="edgeStyle=orthogonalEdgeStyle;rounded=0;orthogonalLoop=1;jettySize=auto;html=1;exitX=0.5;exitY=0;exitDx=0;exitDy=0;entryX=0.5;entryY=1;entryDx=0;entryDy=0;" edge="1" parent="syl_iyW7tfhE2moBdS4G-1" source="f2WcFRh0TZJ79hfww70o-6" target="syl_iyW7tfhE2moBdS4G-4">
          <mxGeometry relative="1" as="geometry" />
        </mxCell>
        <mxCell id="f2WcFRh0TZJ79hfww70o-29" style="edgeStyle=orthogonalEdgeStyle;rounded=0;orthogonalLoop=1;jettySize=auto;html=1;exitX=0;exitY=0.5;exitDx=0;exitDy=0;entryX=1;entryY=0.5;entryDx=0;entryDy=0;" edge="1" parent="syl_iyW7tfhE2moBdS4G-1" source="f2WcFRh0TZJ79hfww70o-6" target="f2WcFRh0TZJ79hfww70o-28">
          <mxGeometry relative="1" as="geometry" />
        </mxCell>
        <mxCell id="f2WcFRh0TZJ79hfww70o-6" value="Rolling_sequence" style="shape=process;whiteSpace=wrap;html=1;backgroundOutline=1;fontSize=10;labelPosition=center;verticalLabelPosition=bottom;align=center;verticalAlign=top;" vertex="1" parent="syl_iyW7tfhE2moBdS4G-1">
          <mxGeometry x="360" y="755" width="190" height="45" as="geometry" />
        </mxCell>
        <mxCell id="f2WcFRh0TZJ79hfww70o-13" value="first_sequence" style="shape=process;whiteSpace=wrap;html=1;backgroundOutline=1;labelPosition=center;verticalLabelPosition=bottom;align=center;verticalAlign=top;" vertex="1" parent="syl_iyW7tfhE2moBdS4G-1">
          <mxGeometry x="400" y="880" width="110" height="60" as="geometry" />
        </mxCell>
        <mxCell id="f2WcFRh0TZJ79hfww70o-14" value="" style="rounded=0;whiteSpace=wrap;html=1;fillColor=#e51400;fontColor=#ffffff;strokeColor=#B20000;" vertex="1" parent="syl_iyW7tfhE2moBdS4G-1">
          <mxGeometry x="410" y="880" width="30" height="60" as="geometry" />
        </mxCell>
        <mxCell id="f2WcFRh0TZJ79hfww70o-18" style="edgeStyle=orthogonalEdgeStyle;rounded=0;orthogonalLoop=1;jettySize=auto;html=1;exitX=0.5;exitY=0;exitDx=0;exitDy=0;entryX=0.5;entryY=1;entryDx=0;entryDy=0;" edge="1" parent="syl_iyW7tfhE2moBdS4G-1" source="f2WcFRh0TZJ79hfww70o-15" target="f2WcFRh0TZJ79hfww70o-6">
          <mxGeometry relative="1" as="geometry" />
        </mxCell>
        <mxCell id="f2WcFRh0TZJ79hfww70o-15" value="" style="rounded=0;whiteSpace=wrap;html=1;fillColor=#000000;fontColor=#ffffff;strokeColor=#001DBC;" vertex="1" parent="syl_iyW7tfhE2moBdS4G-1">
          <mxGeometry x="440" y="880" width="30" height="60" as="geometry" />
        </mxCell>
        <mxCell id="f2WcFRh0TZJ79hfww70o-16" value="" style="rounded=0;whiteSpace=wrap;html=1;fillColor=#000000;fontColor=#ffffff;strokeColor=#001DBC;" vertex="1" parent="syl_iyW7tfhE2moBdS4G-1">
          <mxGeometry x="470" y="880" width="30" height="60" as="geometry" />
        </mxCell>
        <mxCell id="f2WcFRh0TZJ79hfww70o-21" value="" style="rounded=0;whiteSpace=wrap;html=1;fillColor=#e51400;fontColor=#ffffff;strokeColor=#B20000;" vertex="1" parent="syl_iyW7tfhE2moBdS4G-1">
          <mxGeometry x="500" y="755" width="30" height="45" as="geometry" />
        </mxCell>
        <mxCell id="f2WcFRh0TZJ79hfww70o-24" value="" style="rounded=0;whiteSpace=wrap;html=1;fillColor=#0050ef;fontColor=#ffffff;strokeColor=#001DBC;" vertex="1" parent="syl_iyW7tfhE2moBdS4G-1">
          <mxGeometry x="470" y="755" width="30" height="45" as="geometry" />
        </mxCell>
        <mxCell id="f2WcFRh0TZJ79hfww70o-25" value="" style="rounded=0;whiteSpace=wrap;html=1;fillColor=#0050ef;fontColor=#ffffff;strokeColor=#001DBC;" vertex="1" parent="syl_iyW7tfhE2moBdS4G-1">
          <mxGeometry x="440" y="755" width="30" height="45" as="geometry" />
        </mxCell>
        <mxCell id="f2WcFRh0TZJ79hfww70o-26" value="" style="rounded=0;whiteSpace=wrap;html=1;fillColor=#0050ef;fontColor=#ffffff;strokeColor=#001DBC;" vertex="1" parent="syl_iyW7tfhE2moBdS4G-1">
          <mxGeometry x="410" y="755" width="30" height="45" as="geometry" />
        </mxCell>
        <mxCell id="f2WcFRh0TZJ79hfww70o-27" value="" style="rounded=0;whiteSpace=wrap;html=1;fillColor=#0050ef;fontColor=#ffffff;strokeColor=#001DBC;" vertex="1" parent="syl_iyW7tfhE2moBdS4G-1">
          <mxGeometry x="380" y="755" width="30" height="45" as="geometry" />
        </mxCell>
        <mxCell id="f2WcFRh0TZJ79hfww70o-28" value="" style="rounded=0;whiteSpace=wrap;html=1;fillColor=#6d8764;fontColor=#ffffff;strokeColor=#3A5431;" vertex="1" parent="syl_iyW7tfhE2moBdS4G-1">
          <mxGeometry x="320" y="755" width="30" height="45" as="geometry" />
        </mxCell>
        <mxCell id="f2WcFRh0TZJ79hfww70o-32" value="Output_sequence" style="shape=process;whiteSpace=wrap;html=1;backgroundOutline=1;fontSize=10;labelPosition=center;verticalLabelPosition=bottom;align=center;verticalAlign=top;" vertex="1" parent="syl_iyW7tfhE2moBdS4G-1">
          <mxGeometry x="760" y="177.5" width="250" height="45" as="geometry" />
        </mxCell>
        <mxCell id="f2WcFRh0TZJ79hfww70o-34" value="" style="rounded=0;whiteSpace=wrap;html=1;fillColor=#0050ef;fontColor=#ffffff;strokeColor=#001DBC;" vertex="1" parent="syl_iyW7tfhE2moBdS4G-1">
          <mxGeometry x="931" y="177.5" width="30" height="45" as="geometry" />
        </mxCell>
        <mxCell id="f2WcFRh0TZJ79hfww70o-35" value="" style="rounded=0;whiteSpace=wrap;html=1;fillColor=#0050ef;fontColor=#ffffff;strokeColor=#001DBC;" vertex="1" parent="syl_iyW7tfhE2moBdS4G-1">
          <mxGeometry x="901" y="177.5" width="30" height="45" as="geometry" />
        </mxCell>
        <mxCell id="f2WcFRh0TZJ79hfww70o-36" value="" style="rounded=0;whiteSpace=wrap;html=1;fillColor=#0050ef;fontColor=#ffffff;strokeColor=#001DBC;" vertex="1" parent="syl_iyW7tfhE2moBdS4G-1">
          <mxGeometry x="871" y="177.5" width="30" height="45" as="geometry" />
        </mxCell>
        <mxCell id="f2WcFRh0TZJ79hfww70o-37" value="" style="rounded=0;whiteSpace=wrap;html=1;fillColor=#0050ef;fontColor=#ffffff;strokeColor=#001DBC;" vertex="1" parent="syl_iyW7tfhE2moBdS4G-1">
          <mxGeometry x="841" y="177.5" width="30" height="45" as="geometry" />
        </mxCell>
        <mxCell id="f2WcFRh0TZJ79hfww70o-38" value="" style="rounded=0;whiteSpace=wrap;html=1;fillColor=#6d8764;fontColor=#ffffff;strokeColor=#3A5431;" vertex="1" parent="syl_iyW7tfhE2moBdS4G-1">
          <mxGeometry x="811" y="177.5" width="30" height="45" as="geometry" />
        </mxCell>
        <mxCell id="f2WcFRh0TZJ79hfww70o-39" value="" style="rounded=0;whiteSpace=wrap;html=1;fillColor=#6d8764;fontColor=#ffffff;strokeColor=#3A5431;" vertex="1" parent="syl_iyW7tfhE2moBdS4G-1">
          <mxGeometry x="781" y="177.5" width="30" height="45" as="geometry" />
        </mxCell>
        <mxCell id="f2WcFRh0TZJ79hfww70o-43" value="" style="rounded=0;whiteSpace=wrap;html=1;fillColor=#e51400;fontColor=#ffffff;strokeColor=#B20000;" vertex="1" parent="syl_iyW7tfhE2moBdS4G-1">
          <mxGeometry x="961" y="177.5" width="30" height="45" as="geometry" />
        </mxCell>
      </root>
    </mxGraphModel>
  </diagram>
  <diagram name="training_loop" id="NZu-Pag_9z0MYTWzFWb6">
    <mxGraphModel dx="1195" dy="697" grid="1" gridSize="10" guides="1" tooltips="1" connect="1" arrows="1" fold="1" page="1" pageScale="1" pageWidth="827" pageHeight="1169" math="0" shadow="0">
      <root>
        <mxCell id="wmiqkW8u7a0Ax20ACmad-0" />
        <mxCell id="wmiqkW8u7a0Ax20ACmad-1" parent="wmiqkW8u7a0Ax20ACmad-0" />
        <mxCell id="wmiqkW8u7a0Ax20ACmad-2" value="HWTransformer" style="rounded=0;whiteSpace=wrap;html=1;verticalAlign=top;" vertex="1" parent="wmiqkW8u7a0Ax20ACmad-1">
          <mxGeometry x="170" y="200" width="370" height="480" as="geometry" />
        </mxCell>
        <mxCell id="wmiqkW8u7a0Ax20ACmad-3" value="Encoder" style="rounded=0;whiteSpace=wrap;html=1;labelPosition=center;verticalLabelPosition=middle;align=center;verticalAlign=middle;" vertex="1" parent="wmiqkW8u7a0Ax20ACmad-1">
          <mxGeometry x="214" y="430" width="106" height="190" as="geometry" />
        </mxCell>
        <mxCell id="o8MLKpeNTbMzEHnyBG6V-0" style="edgeStyle=orthogonalEdgeStyle;rounded=0;orthogonalLoop=1;jettySize=auto;html=1;exitX=0.5;exitY=0;exitDx=0;exitDy=0;entryX=0.5;entryY=0;entryDx=0;entryDy=0;" edge="1" parent="wmiqkW8u7a0Ax20ACmad-1" source="wmiqkW8u7a0Ax20ACmad-5" target="wmiqkW8u7a0Ax20ACmad-13">
          <mxGeometry relative="1" as="geometry" />
        </mxCell>
        <mxCell id="o8MLKpeNTbMzEHnyBG6V-1" style="edgeStyle=orthogonalEdgeStyle;rounded=0;orthogonalLoop=1;jettySize=auto;html=1;exitX=0.5;exitY=0;exitDx=0;exitDy=0;entryX=0.5;entryY=0;entryDx=0;entryDy=0;" edge="1" parent="wmiqkW8u7a0Ax20ACmad-1" source="wmiqkW8u7a0Ax20ACmad-5" target="wmiqkW8u7a0Ax20ACmad-16">
          <mxGeometry relative="1" as="geometry" />
        </mxCell>
        <mxCell id="wmiqkW8u7a0Ax20ACmad-5" value="Decoder" style="rounded=0;whiteSpace=wrap;html=1;" vertex="1" parent="wmiqkW8u7a0Ax20ACmad-1">
          <mxGeometry x="390" y="250" width="130" height="370" as="geometry" />
        </mxCell>
        <mxCell id="wmiqkW8u7a0Ax20ACmad-6" style="edgeStyle=orthogonalEdgeStyle;rounded=0;orthogonalLoop=1;jettySize=auto;html=1;exitX=1;exitY=0.5;exitDx=0;exitDy=0;entryX=0.5;entryY=1;entryDx=0;entryDy=0;" edge="1" parent="wmiqkW8u7a0Ax20ACmad-1" source="wmiqkW8u7a0Ax20ACmad-7" target="wmiqkW8u7a0Ax20ACmad-3">
          <mxGeometry relative="1" as="geometry" />
        </mxCell>
        <mxCell id="wmiqkW8u7a0Ax20ACmad-7" value="Patchified_images" style="shape=process;whiteSpace=wrap;html=1;backgroundOutline=1;fontSize=10;fillColor=#dae8fc;strokeColor=#6c8ebf;" vertex="1" parent="wmiqkW8u7a0Ax20ACmad-1">
          <mxGeometry x="100" y="765" width="120" height="30" as="geometry" />
        </mxCell>
        <mxCell id="wmiqkW8u7a0Ax20ACmad-8" style="edgeStyle=orthogonalEdgeStyle;rounded=0;orthogonalLoop=1;jettySize=auto;html=1;exitX=1;exitY=0.5;exitDx=0;exitDy=0;entryX=0.5;entryY=1;entryDx=0;entryDy=0;" edge="1" parent="wmiqkW8u7a0Ax20ACmad-1" source="wmiqkW8u7a0Ax20ACmad-9" target="wmiqkW8u7a0Ax20ACmad-3">
          <mxGeometry relative="1" as="geometry" />
        </mxCell>
        <mxCell id="wmiqkW8u7a0Ax20ACmad-9" value="Patchified_masks" style="shape=process;whiteSpace=wrap;html=1;backgroundOutline=1;fontSize=10;fillColor=#dae8fc;strokeColor=#6c8ebf;" vertex="1" parent="wmiqkW8u7a0Ax20ACmad-1">
          <mxGeometry x="100" y="810" width="120" height="30" as="geometry" />
        </mxCell>
        <mxCell id="wmiqkW8u7a0Ax20ACmad-11" value="Target_sequences" style="shape=process;whiteSpace=wrap;html=1;backgroundOutline=1;fontSize=10;fillColor=#dae8fc;strokeColor=#6c8ebf;" vertex="1" parent="wmiqkW8u7a0Ax20ACmad-1">
          <mxGeometry x="395" y="770" width="120" height="30" as="geometry" />
        </mxCell>
        <mxCell id="wmiqkW8u7a0Ax20ACmad-13" value="x&lt;div&gt;y&lt;/div&gt;" style="whiteSpace=wrap;html=1;aspect=fixed;fillColor=#d5e8d4;strokeColor=#82b366;" vertex="1" parent="wmiqkW8u7a0Ax20ACmad-1">
          <mxGeometry x="625" y="690" width="40" height="40" as="geometry" />
        </mxCell>
        <mxCell id="wmiqkW8u7a0Ax20ACmad-16" value="STOP" style="whiteSpace=wrap;html=1;aspect=fixed;fillColor=#d5e8d4;strokeColor=#82b366;" vertex="1" parent="wmiqkW8u7a0Ax20ACmad-1">
          <mxGeometry x="725" y="690" width="40" height="40" as="geometry" />
        </mxCell>
        <mxCell id="wmiqkW8u7a0Ax20ACmad-17" style="edgeStyle=orthogonalEdgeStyle;rounded=0;orthogonalLoop=1;jettySize=auto;html=1;exitX=1;exitY=0.25;exitDx=0;exitDy=0;entryX=0;entryY=0.614;entryDx=0;entryDy=0;entryPerimeter=0;" edge="1" parent="wmiqkW8u7a0Ax20ACmad-1" source="wmiqkW8u7a0Ax20ACmad-3" target="wmiqkW8u7a0Ax20ACmad-5">
          <mxGeometry relative="1" as="geometry" />
        </mxCell>
        <mxCell id="wmiqkW8u7a0Ax20ACmad-18" style="edgeStyle=orthogonalEdgeStyle;rounded=0;orthogonalLoop=1;jettySize=auto;html=1;exitX=0.5;exitY=0;exitDx=0;exitDy=0;entryX=0.5;entryY=1;entryDx=0;entryDy=0;" edge="1" parent="wmiqkW8u7a0Ax20ACmad-1" source="wmiqkW8u7a0Ax20ACmad-11" target="wmiqkW8u7a0Ax20ACmad-5">
          <mxGeometry relative="1" as="geometry">
            <mxPoint x="455" y="755" as="sourcePoint" />
          </mxGeometry>
        </mxCell>
        <mxCell id="o8MLKpeNTbMzEHnyBG6V-2" value="Loss" style="rounded=0;whiteSpace=wrap;html=1;verticalAlign=bottom;" vertex="1" parent="wmiqkW8u7a0Ax20ACmad-1">
          <mxGeometry x="580" y="782.5" width="230" height="85" as="geometry" />
        </mxCell>
        <mxCell id="o8MLKpeNTbMzEHnyBG6V-3" value="L1Loss" style="rounded=1;whiteSpace=wrap;html=1;" vertex="1" parent="wmiqkW8u7a0Ax20ACmad-1">
          <mxGeometry x="600" y="795" width="90" height="45" as="geometry" />
        </mxCell>
        <mxCell id="o8MLKpeNTbMzEHnyBG6V-4" value="BCE&lt;div&gt;Logit&lt;br&gt;Loss&lt;/div&gt;" style="rounded=1;whiteSpace=wrap;html=1;" vertex="1" parent="wmiqkW8u7a0Ax20ACmad-1">
          <mxGeometry x="700" y="795" width="90" height="45" as="geometry" />
        </mxCell>
        <mxCell id="o8MLKpeNTbMzEHnyBG6V-6" style="edgeStyle=orthogonalEdgeStyle;rounded=0;orthogonalLoop=1;jettySize=auto;html=1;exitX=1;exitY=0.5;exitDx=0;exitDy=0;entryX=0;entryY=0.5;entryDx=0;entryDy=0;" edge="1" parent="wmiqkW8u7a0Ax20ACmad-1" source="o8MLKpeNTbMzEHnyBG6V-5" target="o8MLKpeNTbMzEHnyBG6V-2">
          <mxGeometry relative="1" as="geometry" />
        </mxCell>
        <mxCell id="o8MLKpeNTbMzEHnyBG6V-5" value="Labels, StopLabels" style="shape=process;whiteSpace=wrap;html=1;backgroundOutline=1;fontSize=10;fillColor=#dae8fc;strokeColor=#6c8ebf;" vertex="1" parent="wmiqkW8u7a0Ax20ACmad-1">
          <mxGeometry x="395" y="810" width="120" height="30" as="geometry" />
        </mxCell>
        <mxCell id="o8MLKpeNTbMzEHnyBG6V-7" style="edgeStyle=orthogonalEdgeStyle;rounded=0;orthogonalLoop=1;jettySize=auto;html=1;exitX=0.5;exitY=1;exitDx=0;exitDy=0;entryX=0.5;entryY=0;entryDx=0;entryDy=0;" edge="1" parent="wmiqkW8u7a0Ax20ACmad-1" source="wmiqkW8u7a0Ax20ACmad-13" target="o8MLKpeNTbMzEHnyBG6V-3">
          <mxGeometry relative="1" as="geometry" />
        </mxCell>
        <mxCell id="o8MLKpeNTbMzEHnyBG6V-8" style="edgeStyle=orthogonalEdgeStyle;rounded=0;orthogonalLoop=1;jettySize=auto;html=1;exitX=0.5;exitY=1;exitDx=0;exitDy=0;entryX=0.5;entryY=0;entryDx=0;entryDy=0;" edge="1" parent="wmiqkW8u7a0Ax20ACmad-1" source="wmiqkW8u7a0Ax20ACmad-16" target="o8MLKpeNTbMzEHnyBG6V-4">
          <mxGeometry relative="1" as="geometry" />
        </mxCell>
      </root>
    </mxGraphModel>
  </diagram>
  <diagram name="model_archit_with_LSTM" id="yVIx2eQ0CFavjiLQHKCt">
    <mxGraphModel dx="1687" dy="2153" grid="1" gridSize="10" guides="1" tooltips="1" connect="1" arrows="1" fold="1" page="1" pageScale="1" pageWidth="827" pageHeight="1169" math="0" shadow="0">
      <root>
        <mxCell id="oSNWQE6mf8nxNRP08fyD-0" />
        <mxCell id="oSNWQE6mf8nxNRP08fyD-1" parent="oSNWQE6mf8nxNRP08fyD-0" />
        <mxCell id="oSNWQE6mf8nxNRP08fyD-2" value="" style="rounded=0;whiteSpace=wrap;html=1;" vertex="1" parent="oSNWQE6mf8nxNRP08fyD-1">
          <mxGeometry x="40" y="-180" width="960" height="1110" as="geometry" />
        </mxCell>
        <mxCell id="oSNWQE6mf8nxNRP08fyD-3" value="Encoder" style="rounded=0;whiteSpace=wrap;html=1;labelPosition=left;verticalLabelPosition=top;align=right;verticalAlign=bottom;" vertex="1" parent="oSNWQE6mf8nxNRP08fyD-1">
          <mxGeometry x="94" y="240" width="370" height="380" as="geometry" />
        </mxCell>
        <mxCell id="oSNWQE6mf8nxNRP08fyD-4" value="" style="rounded=0;whiteSpace=wrap;html=1;" vertex="1" parent="oSNWQE6mf8nxNRP08fyD-1">
          <mxGeometry x="560" y="20" width="400" height="565" as="geometry" />
        </mxCell>
        <mxCell id="oSNWQE6mf8nxNRP08fyD-5" value="Patchified_images" style="shape=process;whiteSpace=wrap;html=1;backgroundOutline=1;fontSize=10;" vertex="1" parent="oSNWQE6mf8nxNRP08fyD-1">
          <mxGeometry x="110" y="1040" width="120" height="60" as="geometry" />
        </mxCell>
        <mxCell id="oSNWQE6mf8nxNRP08fyD-6" style="edgeStyle=orthogonalEdgeStyle;rounded=0;orthogonalLoop=1;jettySize=auto;html=1;exitX=0.5;exitY=0;exitDx=0;exitDy=0;entryX=0.5;entryY=1;entryDx=0;entryDy=0;" edge="1" parent="oSNWQE6mf8nxNRP08fyD-1" source="oSNWQE6mf8nxNRP08fyD-7" target="oSNWQE6mf8nxNRP08fyD-3">
          <mxGeometry relative="1" as="geometry">
            <Array as="points">
              <mxPoint x="330" y="760" />
              <mxPoint x="279" y="760" />
            </Array>
          </mxGeometry>
        </mxCell>
        <mxCell id="oSNWQE6mf8nxNRP08fyD-7" value="Patchified_masks" style="shape=process;whiteSpace=wrap;html=1;backgroundOutline=1;fontSize=10;" vertex="1" parent="oSNWQE6mf8nxNRP08fyD-1">
          <mxGeometry x="270" y="1040" width="120" height="60" as="geometry" />
        </mxCell>
        <mxCell id="oSNWQE6mf8nxNRP08fyD-8" style="edgeStyle=orthogonalEdgeStyle;rounded=0;orthogonalLoop=1;jettySize=auto;html=1;exitX=0.5;exitY=0;exitDx=0;exitDy=0;entryX=0.5;entryY=1;entryDx=0;entryDy=0;" edge="1" parent="oSNWQE6mf8nxNRP08fyD-1" source="oSNWQE6mf8nxNRP08fyD-9" target="oSNWQE6mf8nxNRP08fyD-17">
          <mxGeometry relative="1" as="geometry" />
        </mxCell>
        <mxCell id="oSNWQE6mf8nxNRP08fyD-9" value="Target_sequences" style="shape=process;whiteSpace=wrap;html=1;backgroundOutline=1;fontSize=10;" vertex="1" parent="oSNWQE6mf8nxNRP08fyD-1">
          <mxGeometry x="665" y="1040" width="120" height="60" as="geometry" />
        </mxCell>
        <mxCell id="oSNWQE6mf8nxNRP08fyD-10" style="edgeStyle=orthogonalEdgeStyle;rounded=0;orthogonalLoop=1;jettySize=auto;html=1;exitX=0.5;exitY=0;exitDx=0;exitDy=0;entryX=0.5;entryY=1;entryDx=0;entryDy=0;" edge="1" parent="oSNWQE6mf8nxNRP08fyD-1" source="oSNWQE6mf8nxNRP08fyD-5" target="oSNWQE6mf8nxNRP08fyD-12">
          <mxGeometry relative="1" as="geometry">
            <Array as="points">
              <mxPoint x="170" y="960" />
              <mxPoint x="205" y="960" />
            </Array>
          </mxGeometry>
        </mxCell>
        <mxCell id="oSNWQE6mf8nxNRP08fyD-11" style="edgeStyle=orthogonalEdgeStyle;rounded=0;orthogonalLoop=1;jettySize=auto;html=1;exitX=0.5;exitY=0;exitDx=0;exitDy=0;entryX=0.5;entryY=1;entryDx=0;entryDy=0;" edge="1" parent="oSNWQE6mf8nxNRP08fyD-1" source="oSNWQE6mf8nxNRP08fyD-12" target="oSNWQE6mf8nxNRP08fyD-14">
          <mxGeometry relative="1" as="geometry" />
        </mxCell>
        <mxCell id="oSNWQE6mf8nxNRP08fyD-12" value="Embeddings from patches" style="rounded=1;whiteSpace=wrap;html=1;" vertex="1" parent="oSNWQE6mf8nxNRP08fyD-1">
          <mxGeometry x="120" y="850" width="170" height="40" as="geometry" />
        </mxCell>
        <mxCell id="oSNWQE6mf8nxNRP08fyD-13" style="edgeStyle=orthogonalEdgeStyle;rounded=0;orthogonalLoop=1;jettySize=auto;html=1;exitX=0.5;exitY=0;exitDx=0;exitDy=0;" edge="1" parent="oSNWQE6mf8nxNRP08fyD-1" source="oSNWQE6mf8nxNRP08fyD-14">
          <mxGeometry relative="1" as="geometry">
            <mxPoint x="279" y="620" as="targetPoint" />
            <Array as="points">
              <mxPoint x="205" y="760" />
              <mxPoint x="279" y="760" />
            </Array>
          </mxGeometry>
        </mxCell>
        <mxCell id="oSNWQE6mf8nxNRP08fyD-14" value="positional_embeddings" style="rounded=1;whiteSpace=wrap;html=1;" vertex="1" parent="oSNWQE6mf8nxNRP08fyD-1">
          <mxGeometry x="120" y="790" width="170" height="40" as="geometry" />
        </mxCell>
        <mxCell id="oSNWQE6mf8nxNRP08fyD-15" style="edgeStyle=orthogonalEdgeStyle;rounded=0;orthogonalLoop=1;jettySize=auto;html=1;exitX=0.5;exitY=0;exitDx=0;exitDy=0;entryX=0.5;entryY=1;entryDx=0;entryDy=0;" edge="1" parent="oSNWQE6mf8nxNRP08fyD-1" source="oSNWQE6mf8nxNRP08fyD-17" target="oSNWQE6mf8nxNRP08fyD-19">
          <mxGeometry relative="1" as="geometry" />
        </mxCell>
        <mxCell id="oSNWQE6mf8nxNRP08fyD-16" style="edgeStyle=orthogonalEdgeStyle;rounded=0;orthogonalLoop=1;jettySize=auto;html=1;exitX=0.5;exitY=0;exitDx=0;exitDy=0;entryX=0.5;entryY=1;entryDx=0;entryDy=0;" edge="1" parent="oSNWQE6mf8nxNRP08fyD-1" source="oSNWQE6mf8nxNRP08fyD-17" target="oSNWQE6mf8nxNRP08fyD-21">
          <mxGeometry relative="1" as="geometry" />
        </mxCell>
        <mxCell id="oSNWQE6mf8nxNRP08fyD-17" value="normalize_sequences" style="rounded=1;whiteSpace=wrap;html=1;" vertex="1" parent="oSNWQE6mf8nxNRP08fyD-1">
          <mxGeometry x="660" y="880" width="130" height="30" as="geometry" />
        </mxCell>
        <mxCell id="oSNWQE6mf8nxNRP08fyD-18" style="edgeStyle=orthogonalEdgeStyle;rounded=0;orthogonalLoop=1;jettySize=auto;html=1;exitX=0.5;exitY=0;exitDx=0;exitDy=0;entryX=0.5;entryY=1;entryDx=0;entryDy=0;" edge="1" parent="oSNWQE6mf8nxNRP08fyD-1" source="oSNWQE6mf8nxNRP08fyD-19" target="oSNWQE6mf8nxNRP08fyD-23">
          <mxGeometry relative="1" as="geometry" />
        </mxCell>
        <mxCell id="oSNWQE6mf8nxNRP08fyD-19" value="Target_sequences" style="shape=process;whiteSpace=wrap;html=1;backgroundOutline=1;fontSize=10;" vertex="1" parent="oSNWQE6mf8nxNRP08fyD-1">
          <mxGeometry x="590" y="810" width="120" height="30" as="geometry" />
        </mxCell>
        <mxCell id="oSNWQE6mf8nxNRP08fyD-20" style="edgeStyle=orthogonalEdgeStyle;rounded=0;orthogonalLoop=1;jettySize=auto;html=1;exitX=0.5;exitY=0;exitDx=0;exitDy=0;entryX=0.5;entryY=1;entryDx=0;entryDy=0;" edge="1" parent="oSNWQE6mf8nxNRP08fyD-1" source="oSNWQE6mf8nxNRP08fyD-21" target="oSNWQE6mf8nxNRP08fyD-48">
          <mxGeometry relative="1" as="geometry">
            <Array as="points">
              <mxPoint x="800" y="610" />
              <mxPoint x="760" y="610" />
            </Array>
          </mxGeometry>
        </mxCell>
        <mxCell id="oSNWQE6mf8nxNRP08fyD-21" value="target_masks" style="shape=process;whiteSpace=wrap;html=1;backgroundOutline=1;fontSize=10;" vertex="1" parent="oSNWQE6mf8nxNRP08fyD-1">
          <mxGeometry x="740" y="810" width="120" height="30" as="geometry" />
        </mxCell>
        <mxCell id="oSNWQE6mf8nxNRP08fyD-22" style="edgeStyle=orthogonalEdgeStyle;rounded=0;orthogonalLoop=1;jettySize=auto;html=1;exitX=0.5;exitY=0;exitDx=0;exitDy=0;entryX=0.5;entryY=1;entryDx=0;entryDy=0;" edge="1" parent="oSNWQE6mf8nxNRP08fyD-1" source="oSNWQE6mf8nxNRP08fyD-23" target="oSNWQE6mf8nxNRP08fyD-26">
          <mxGeometry relative="1" as="geometry" />
        </mxCell>
        <mxCell id="oSNWQE6mf8nxNRP08fyD-23" value="embedding_sequences" style="rounded=1;whiteSpace=wrap;html=1;" vertex="1" parent="oSNWQE6mf8nxNRP08fyD-1">
          <mxGeometry x="560" y="760" width="170" height="30" as="geometry" />
        </mxCell>
        <mxCell id="oSNWQE6mf8nxNRP08fyD-25" style="edgeStyle=orthogonalEdgeStyle;rounded=0;orthogonalLoop=1;jettySize=auto;html=1;exitX=0.5;exitY=0;exitDx=0;exitDy=0;entryX=0.5;entryY=1;entryDx=0;entryDy=0;" edge="1" parent="oSNWQE6mf8nxNRP08fyD-1" source="RC7gPSI_Rmm21fb-OFnv-1" target="oSNWQE6mf8nxNRP08fyD-29">
          <mxGeometry relative="1" as="geometry" />
        </mxCell>
        <mxCell id="oSNWQE6mf8nxNRP08fyD-26" value="Pred Token ?" style="rounded=1;whiteSpace=wrap;html=1;" vertex="1" parent="oSNWQE6mf8nxNRP08fyD-1">
          <mxGeometry x="560" y="710" width="170" height="30" as="geometry" />
        </mxCell>
        <mxCell id="oSNWQE6mf8nxNRP08fyD-27" style="edgeStyle=orthogonalEdgeStyle;rounded=0;orthogonalLoop=1;jettySize=auto;html=1;exitX=0.5;exitY=0;exitDx=0;exitDy=0;entryX=0.5;entryY=1;entryDx=0;entryDy=0;" edge="1" parent="oSNWQE6mf8nxNRP08fyD-1" source="oSNWQE6mf8nxNRP08fyD-29" target="oSNWQE6mf8nxNRP08fyD-48">
          <mxGeometry relative="1" as="geometry">
            <Array as="points">
              <mxPoint x="645" y="620" />
              <mxPoint x="760" y="620" />
              <mxPoint x="760" y="550" />
            </Array>
          </mxGeometry>
        </mxCell>
        <mxCell id="oSNWQE6mf8nxNRP08fyD-28" style="edgeStyle=orthogonalEdgeStyle;rounded=0;orthogonalLoop=1;jettySize=auto;html=1;exitX=0.5;exitY=0;exitDx=0;exitDy=0;entryX=1;entryY=0.5;entryDx=0;entryDy=0;" edge="1" parent="oSNWQE6mf8nxNRP08fyD-1" source="oSNWQE6mf8nxNRP08fyD-29" target="oSNWQE6mf8nxNRP08fyD-51">
          <mxGeometry relative="1" as="geometry">
            <Array as="points">
              <mxPoint x="645" y="610" />
              <mxPoint x="760" y="610" />
              <mxPoint x="760" y="560" />
              <mxPoint x="850" y="560" />
              <mxPoint x="850" y="450" />
            </Array>
          </mxGeometry>
        </mxCell>
        <mxCell id="oSNWQE6mf8nxNRP08fyD-29" value="positional_embeddings" style="rounded=1;whiteSpace=wrap;html=1;" vertex="1" parent="oSNWQE6mf8nxNRP08fyD-1">
          <mxGeometry x="560" y="620" width="170" height="30" as="geometry" />
        </mxCell>
        <mxCell id="oSNWQE6mf8nxNRP08fyD-32" style="edgeStyle=orthogonalEdgeStyle;rounded=0;orthogonalLoop=1;jettySize=auto;html=1;exitX=0.5;exitY=0;exitDx=0;exitDy=0;entryX=0.5;entryY=1;entryDx=0;entryDy=0;" edge="1" parent="oSNWQE6mf8nxNRP08fyD-1" source="oSNWQE6mf8nxNRP08fyD-33" target="oSNWQE6mf8nxNRP08fyD-43">
          <mxGeometry relative="1" as="geometry" />
        </mxCell>
        <mxCell id="oSNWQE6mf8nxNRP08fyD-33" value="Multi-head&lt;div&gt;Attention&lt;/div&gt;" style="rounded=1;whiteSpace=wrap;html=1;" vertex="1" parent="oSNWQE6mf8nxNRP08fyD-1">
          <mxGeometry x="211" y="525" width="136" height="60" as="geometry" />
        </mxCell>
        <mxCell id="oSNWQE6mf8nxNRP08fyD-34" style="edgeStyle=orthogonalEdgeStyle;rounded=0;orthogonalLoop=1;jettySize=auto;html=1;exitX=0.5;exitY=1;exitDx=0;exitDy=0;entryX=0.5;entryY=1;entryDx=0;entryDy=0;" edge="1" parent="oSNWQE6mf8nxNRP08fyD-1" source="oSNWQE6mf8nxNRP08fyD-3" target="oSNWQE6mf8nxNRP08fyD-33">
          <mxGeometry relative="1" as="geometry" />
        </mxCell>
        <mxCell id="oSNWQE6mf8nxNRP08fyD-35" style="edgeStyle=orthogonalEdgeStyle;rounded=0;orthogonalLoop=1;jettySize=auto;html=1;exitX=0.5;exitY=0;exitDx=0;exitDy=0;entryX=0.5;entryY=1;entryDx=0;entryDy=0;" edge="1" parent="oSNWQE6mf8nxNRP08fyD-1" source="oSNWQE6mf8nxNRP08fyD-36" target="oSNWQE6mf8nxNRP08fyD-45">
          <mxGeometry relative="1" as="geometry" />
        </mxCell>
        <mxCell id="oSNWQE6mf8nxNRP08fyD-36" value="Feed-Forward" style="rounded=1;whiteSpace=wrap;html=1;verticalAlign=middle;labelPosition=left;verticalLabelPosition=middle;align=right;" vertex="1" parent="oSNWQE6mf8nxNRP08fyD-1">
          <mxGeometry x="206" y="320" width="146" height="140" as="geometry" />
        </mxCell>
        <mxCell id="oSNWQE6mf8nxNRP08fyD-37" value="Expand" style="rounded=0;whiteSpace=wrap;html=1;" vertex="1" parent="oSNWQE6mf8nxNRP08fyD-1">
          <mxGeometry x="219" y="420" width="120" height="30" as="geometry" />
        </mxCell>
        <mxCell id="oSNWQE6mf8nxNRP08fyD-38" value="Activation&lt;span style=&quot;color: rgba(0, 0, 0, 0); font-family: monospace; font-size: 0px; text-align: start; text-wrap: nowrap;&quot;&gt;%3CmxGraphModel%3E%3Croot%3E%3CmxCell%20id%3D%220%22%2F%3E%3CmxCell%20id%3D%221%22%20parent%3D%220%22%2F%3E%3CmxCell%20id%3D%222%22%20value%3D%22Expand%22%20style%3D%22rounded%3D0%3BwhiteSpace%3Dwrap%3Bhtml%3D1%3B%22%20vertex%3D%221%22%20parent%3D%221%22%3E%3CmxGeometry%20x%3D%22230%22%20y%3D%22420%22%20width%3D%22120%22%20height%3D%2230%22%20as%3D%22geometry%22%2F%3E%3C%2FmxCell%3E%3C%2Froot%3E%3C%2FmxGraphModel%3E&lt;/span&gt;" style="rounded=0;whiteSpace=wrap;html=1;" vertex="1" parent="oSNWQE6mf8nxNRP08fyD-1">
          <mxGeometry x="219" y="375" width="120" height="30" as="geometry" />
        </mxCell>
        <mxCell id="oSNWQE6mf8nxNRP08fyD-39" value="Shrink" style="rounded=0;whiteSpace=wrap;html=1;" vertex="1" parent="oSNWQE6mf8nxNRP08fyD-1">
          <mxGeometry x="219" y="330" width="120" height="30" as="geometry" />
        </mxCell>
        <mxCell id="oSNWQE6mf8nxNRP08fyD-40" style="edgeStyle=orthogonalEdgeStyle;rounded=0;orthogonalLoop=1;jettySize=auto;html=1;exitX=0.5;exitY=1;exitDx=0;exitDy=0;" edge="1" parent="oSNWQE6mf8nxNRP08fyD-1" source="oSNWQE6mf8nxNRP08fyD-3">
          <mxGeometry relative="1" as="geometry">
            <mxPoint x="289" y="630" as="sourcePoint" />
            <mxPoint x="340" y="500" as="targetPoint" />
            <Array as="points">
              <mxPoint x="279" y="610" />
              <mxPoint x="380" y="610" />
              <mxPoint x="380" y="500" />
              <mxPoint x="339" y="500" />
            </Array>
          </mxGeometry>
        </mxCell>
        <mxCell id="oSNWQE6mf8nxNRP08fyD-41" style="edgeStyle=orthogonalEdgeStyle;rounded=0;orthogonalLoop=1;jettySize=auto;html=1;exitX=0.5;exitY=0;exitDx=0;exitDy=0;entryX=0.5;entryY=1;entryDx=0;entryDy=0;" edge="1" parent="oSNWQE6mf8nxNRP08fyD-1" source="oSNWQE6mf8nxNRP08fyD-43" target="oSNWQE6mf8nxNRP08fyD-36">
          <mxGeometry relative="1" as="geometry" />
        </mxCell>
        <mxCell id="oSNWQE6mf8nxNRP08fyD-42" style="edgeStyle=orthogonalEdgeStyle;rounded=0;orthogonalLoop=1;jettySize=auto;html=1;exitX=0.5;exitY=0;exitDx=0;exitDy=0;entryX=1;entryY=0.5;entryDx=0;entryDy=0;" edge="1" parent="oSNWQE6mf8nxNRP08fyD-1" source="oSNWQE6mf8nxNRP08fyD-43" target="oSNWQE6mf8nxNRP08fyD-45">
          <mxGeometry relative="1" as="geometry">
            <Array as="points">
              <mxPoint x="279" y="480" />
              <mxPoint x="380" y="480" />
              <mxPoint x="380" y="290" />
            </Array>
          </mxGeometry>
        </mxCell>
        <mxCell id="oSNWQE6mf8nxNRP08fyD-43" value="Layer Norm" style="rounded=1;whiteSpace=wrap;html=1;" vertex="1" parent="oSNWQE6mf8nxNRP08fyD-1">
          <mxGeometry x="219" y="490" width="120" height="20" as="geometry" />
        </mxCell>
        <mxCell id="oSNWQE6mf8nxNRP08fyD-44" style="edgeStyle=orthogonalEdgeStyle;rounded=0;orthogonalLoop=1;jettySize=auto;html=1;exitX=0.5;exitY=0;exitDx=0;exitDy=0;entryX=0.5;entryY=1;entryDx=0;entryDy=0;" edge="1" parent="oSNWQE6mf8nxNRP08fyD-1" source="oSNWQE6mf8nxNRP08fyD-45" target="oSNWQE6mf8nxNRP08fyD-53">
          <mxGeometry relative="1" as="geometry" />
        </mxCell>
        <mxCell id="oSNWQE6mf8nxNRP08fyD-45" value="Layer Norm" style="rounded=1;whiteSpace=wrap;html=1;" vertex="1" parent="oSNWQE6mf8nxNRP08fyD-1">
          <mxGeometry x="219" y="280" width="120" height="20" as="geometry" />
        </mxCell>
        <mxCell id="oSNWQE6mf8nxNRP08fyD-46" style="edgeStyle=orthogonalEdgeStyle;rounded=0;orthogonalLoop=1;jettySize=auto;html=1;exitX=0.5;exitY=0;exitDx=0;exitDy=0;entryX=0.25;entryY=1;entryDx=0;entryDy=0;" edge="1" parent="oSNWQE6mf8nxNRP08fyD-1" source="oSNWQE6mf8nxNRP08fyD-45" target="oSNWQE6mf8nxNRP08fyD-53">
          <mxGeometry relative="1" as="geometry" />
        </mxCell>
        <mxCell id="oSNWQE6mf8nxNRP08fyD-47" style="edgeStyle=orthogonalEdgeStyle;rounded=0;orthogonalLoop=1;jettySize=auto;html=1;exitX=0.5;exitY=0;exitDx=0;exitDy=0;entryX=0.5;entryY=1;entryDx=0;entryDy=0;" edge="1" parent="oSNWQE6mf8nxNRP08fyD-1" source="oSNWQE6mf8nxNRP08fyD-48" target="oSNWQE6mf8nxNRP08fyD-51">
          <mxGeometry relative="1" as="geometry" />
        </mxCell>
        <mxCell id="oSNWQE6mf8nxNRP08fyD-48" value="Multi-head&lt;div&gt;Attention&lt;/div&gt;" style="rounded=1;whiteSpace=wrap;html=1;" vertex="1" parent="oSNWQE6mf8nxNRP08fyD-1">
          <mxGeometry x="692" y="480" width="136" height="60" as="geometry" />
        </mxCell>
        <mxCell id="oSNWQE6mf8nxNRP08fyD-49" style="edgeStyle=orthogonalEdgeStyle;rounded=0;orthogonalLoop=1;jettySize=auto;html=1;exitX=0.5;exitY=0;exitDx=0;exitDy=0;entryX=0.75;entryY=1;entryDx=0;entryDy=0;" edge="1" parent="oSNWQE6mf8nxNRP08fyD-1" source="oSNWQE6mf8nxNRP08fyD-51" target="oSNWQE6mf8nxNRP08fyD-53">
          <mxGeometry relative="1" as="geometry" />
        </mxCell>
        <mxCell id="oSNWQE6mf8nxNRP08fyD-50" style="edgeStyle=orthogonalEdgeStyle;rounded=0;orthogonalLoop=1;jettySize=auto;html=1;exitX=0.5;exitY=0;exitDx=0;exitDy=0;entryX=1;entryY=0.5;entryDx=0;entryDy=0;" edge="1" parent="oSNWQE6mf8nxNRP08fyD-1" source="oSNWQE6mf8nxNRP08fyD-51" target="oSNWQE6mf8nxNRP08fyD-56">
          <mxGeometry relative="1" as="geometry">
            <Array as="points">
              <mxPoint x="760" y="380" />
              <mxPoint x="850" y="380" />
              <mxPoint x="850" y="220" />
            </Array>
          </mxGeometry>
        </mxCell>
        <mxCell id="oSNWQE6mf8nxNRP08fyD-51" value="Layer Norm" style="rounded=1;whiteSpace=wrap;html=1;" vertex="1" parent="oSNWQE6mf8nxNRP08fyD-1">
          <mxGeometry x="700" y="440" width="120" height="20" as="geometry" />
        </mxCell>
        <mxCell id="oSNWQE6mf8nxNRP08fyD-52" style="edgeStyle=orthogonalEdgeStyle;rounded=0;orthogonalLoop=1;jettySize=auto;html=1;exitX=0.5;exitY=0;exitDx=0;exitDy=0;entryX=0.5;entryY=1;entryDx=0;entryDy=0;" edge="1" parent="oSNWQE6mf8nxNRP08fyD-1" source="oSNWQE6mf8nxNRP08fyD-53" target="oSNWQE6mf8nxNRP08fyD-56">
          <mxGeometry relative="1" as="geometry" />
        </mxCell>
        <mxCell id="oSNWQE6mf8nxNRP08fyD-53" value="Multi-head&lt;div&gt;Attention&lt;/div&gt;" style="rounded=1;whiteSpace=wrap;html=1;" vertex="1" parent="oSNWQE6mf8nxNRP08fyD-1">
          <mxGeometry x="692" y="260" width="136" height="60" as="geometry" />
        </mxCell>
        <mxCell id="oSNWQE6mf8nxNRP08fyD-54" style="edgeStyle=orthogonalEdgeStyle;rounded=0;orthogonalLoop=1;jettySize=auto;html=1;exitX=0.5;exitY=0;exitDx=0;exitDy=0;entryX=0.5;entryY=1;entryDx=0;entryDy=0;" edge="1" parent="oSNWQE6mf8nxNRP08fyD-1" source="oSNWQE6mf8nxNRP08fyD-56" target="oSNWQE6mf8nxNRP08fyD-61">
          <mxGeometry relative="1" as="geometry" />
        </mxCell>
        <mxCell id="oSNWQE6mf8nxNRP08fyD-55" style="edgeStyle=orthogonalEdgeStyle;rounded=0;orthogonalLoop=1;jettySize=auto;html=1;exitX=0.5;exitY=0;exitDx=0;exitDy=0;entryX=1;entryY=0.5;entryDx=0;entryDy=0;" edge="1" parent="oSNWQE6mf8nxNRP08fyD-1" source="oSNWQE6mf8nxNRP08fyD-56" target="oSNWQE6mf8nxNRP08fyD-59">
          <mxGeometry relative="1" as="geometry">
            <Array as="points">
              <mxPoint x="760" y="190" />
              <mxPoint x="850" y="190" />
              <mxPoint x="850" y="80" />
            </Array>
          </mxGeometry>
        </mxCell>
        <mxCell id="oSNWQE6mf8nxNRP08fyD-56" value="Layer Norm" style="rounded=1;whiteSpace=wrap;html=1;" vertex="1" parent="oSNWQE6mf8nxNRP08fyD-1">
          <mxGeometry x="700" y="210" width="120" height="20" as="geometry" />
        </mxCell>
        <mxCell id="oSNWQE6mf8nxNRP08fyD-57" style="edgeStyle=orthogonalEdgeStyle;rounded=0;orthogonalLoop=1;jettySize=auto;html=1;exitX=0.5;exitY=0;exitDx=0;exitDy=0;entryX=0.5;entryY=1;entryDx=0;entryDy=0;" edge="1" parent="oSNWQE6mf8nxNRP08fyD-1" source="oSNWQE6mf8nxNRP08fyD-59" target="oSNWQE6mf8nxNRP08fyD-63">
          <mxGeometry relative="1" as="geometry" />
        </mxCell>
        <mxCell id="oSNWQE6mf8nxNRP08fyD-58" style="edgeStyle=orthogonalEdgeStyle;rounded=0;orthogonalLoop=1;jettySize=auto;html=1;exitX=0.5;exitY=0;exitDx=0;exitDy=0;entryX=0.5;entryY=1;entryDx=0;entryDy=0;" edge="1" parent="oSNWQE6mf8nxNRP08fyD-1" source="oSNWQE6mf8nxNRP08fyD-59" target="oSNWQE6mf8nxNRP08fyD-65">
          <mxGeometry relative="1" as="geometry" />
        </mxCell>
        <mxCell id="oSNWQE6mf8nxNRP08fyD-59" value="Layer Norm" style="rounded=1;whiteSpace=wrap;html=1;" vertex="1" parent="oSNWQE6mf8nxNRP08fyD-1">
          <mxGeometry x="699" y="70" width="120" height="20" as="geometry" />
        </mxCell>
        <mxCell id="oSNWQE6mf8nxNRP08fyD-60" style="edgeStyle=orthogonalEdgeStyle;rounded=0;orthogonalLoop=1;jettySize=auto;html=1;exitX=0.5;exitY=0;exitDx=0;exitDy=0;entryX=0.5;entryY=1;entryDx=0;entryDy=0;" edge="1" parent="oSNWQE6mf8nxNRP08fyD-1" source="oSNWQE6mf8nxNRP08fyD-61" target="oSNWQE6mf8nxNRP08fyD-59">
          <mxGeometry relative="1" as="geometry" />
        </mxCell>
        <mxCell id="oSNWQE6mf8nxNRP08fyD-61" value="FFN" style="rounded=1;whiteSpace=wrap;html=1;" vertex="1" parent="oSNWQE6mf8nxNRP08fyD-1">
          <mxGeometry x="691" y="110" width="136" height="60" as="geometry" />
        </mxCell>
        <mxCell id="oSNWQE6mf8nxNRP08fyD-62" style="edgeStyle=orthogonalEdgeStyle;rounded=0;orthogonalLoop=1;jettySize=auto;html=1;exitX=0.5;exitY=0;exitDx=0;exitDy=0;entryX=0.5;entryY=1;entryDx=0;entryDy=0;" edge="1" parent="oSNWQE6mf8nxNRP08fyD-1" source="oSNWQE6mf8nxNRP08fyD-63" target="oSNWQE6mf8nxNRP08fyD-66">
          <mxGeometry relative="1" as="geometry" />
        </mxCell>
        <mxCell id="oSNWQE6mf8nxNRP08fyD-63" value="Ouput_MLP" style="rounded=0;whiteSpace=wrap;html=1;" vertex="1" parent="oSNWQE6mf8nxNRP08fyD-1">
          <mxGeometry x="620" y="-80" width="120" height="30" as="geometry" />
        </mxCell>
        <mxCell id="oSNWQE6mf8nxNRP08fyD-64" style="edgeStyle=orthogonalEdgeStyle;rounded=0;orthogonalLoop=1;jettySize=auto;html=1;exitX=0.5;exitY=0;exitDx=0;exitDy=0;entryX=0.5;entryY=1;entryDx=0;entryDy=0;" edge="1" parent="oSNWQE6mf8nxNRP08fyD-1" source="oSNWQE6mf8nxNRP08fyD-65" target="oSNWQE6mf8nxNRP08fyD-67">
          <mxGeometry relative="1" as="geometry" />
        </mxCell>
        <mxCell id="oSNWQE6mf8nxNRP08fyD-65" value="STOP_MLP" style="rounded=0;whiteSpace=wrap;html=1;" vertex="1" parent="oSNWQE6mf8nxNRP08fyD-1">
          <mxGeometry x="800" y="-80" width="110" height="30" as="geometry" />
        </mxCell>
        <mxCell id="oSNWQE6mf8nxNRP08fyD-66" value="x&lt;div&gt;y&lt;/div&gt;" style="whiteSpace=wrap;html=1;aspect=fixed;" vertex="1" parent="oSNWQE6mf8nxNRP08fyD-1">
          <mxGeometry x="660" y="-140" width="40" height="40" as="geometry" />
        </mxCell>
        <mxCell id="oSNWQE6mf8nxNRP08fyD-67" value="Bool" style="whiteSpace=wrap;html=1;aspect=fixed;" vertex="1" parent="oSNWQE6mf8nxNRP08fyD-1">
          <mxGeometry x="835" y="-140" width="40" height="40" as="geometry" />
        </mxCell>
        <mxCell id="RC7gPSI_Rmm21fb-OFnv-7" style="edgeStyle=orthogonalEdgeStyle;rounded=0;orthogonalLoop=1;jettySize=auto;html=1;exitX=0.5;exitY=0;exitDx=0;exitDy=0;entryX=0.5;entryY=1;entryDx=0;entryDy=0;" edge="1" parent="oSNWQE6mf8nxNRP08fyD-1" source="RC7gPSI_Rmm21fb-OFnv-0" target="RC7gPSI_Rmm21fb-OFnv-6">
          <mxGeometry relative="1" as="geometry" />
        </mxCell>
        <mxCell id="RC7gPSI_Rmm21fb-OFnv-8" style="edgeStyle=orthogonalEdgeStyle;rounded=0;orthogonalLoop=1;jettySize=auto;html=1;exitX=1;exitY=0.5;exitDx=0;exitDy=0;entryX=0;entryY=0.5;entryDx=0;entryDy=0;endArrow=none;endFill=0;startArrow=classicThin;startFill=1;" edge="1" parent="oSNWQE6mf8nxNRP08fyD-1" source="RC7gPSI_Rmm21fb-OFnv-0" target="oSNWQE6mf8nxNRP08fyD-19">
          <mxGeometry relative="1" as="geometry" />
        </mxCell>
        <mxCell id="RC7gPSI_Rmm21fb-OFnv-0" value="LSTM" style="rounded=0;whiteSpace=wrap;html=1;fillColor=#dae8fc;strokeColor=#6c8ebf;" vertex="1" parent="oSNWQE6mf8nxNRP08fyD-1">
          <mxGeometry x="487.5" y="805" width="50" height="40" as="geometry" />
        </mxCell>
        <mxCell id="RC7gPSI_Rmm21fb-OFnv-2" value="" style="edgeStyle=orthogonalEdgeStyle;rounded=0;orthogonalLoop=1;jettySize=auto;html=1;exitX=0.5;exitY=0;exitDx=0;exitDy=0;entryX=0.5;entryY=1;entryDx=0;entryDy=0;" edge="1" parent="oSNWQE6mf8nxNRP08fyD-1" source="oSNWQE6mf8nxNRP08fyD-26" target="RC7gPSI_Rmm21fb-OFnv-1">
          <mxGeometry relative="1" as="geometry">
            <mxPoint x="645" y="710" as="sourcePoint" />
            <mxPoint x="645" y="660" as="targetPoint" />
          </mxGeometry>
        </mxCell>
        <mxCell id="RC7gPSI_Rmm21fb-OFnv-1" value="LSTM ?" style="rounded=1;whiteSpace=wrap;html=1;" vertex="1" parent="oSNWQE6mf8nxNRP08fyD-1">
          <mxGeometry x="560" y="670" width="170" height="30" as="geometry" />
        </mxCell>
        <mxCell id="RC7gPSI_Rmm21fb-OFnv-4" style="edgeStyle=orthogonalEdgeStyle;rounded=0;orthogonalLoop=1;jettySize=auto;html=1;exitX=0;exitY=0.5;exitDx=0;exitDy=0;entryX=1;entryY=0.5;entryDx=0;entryDy=0;startArrow=async;startFill=1;endArrow=async;endFill=1;" edge="1" parent="oSNWQE6mf8nxNRP08fyD-1" target="RC7gPSI_Rmm21fb-OFnv-5" source="RC7gPSI_Rmm21fb-OFnv-1">
          <mxGeometry relative="1" as="geometry">
            <mxPoint x="570" y="735" as="sourcePoint" />
          </mxGeometry>
        </mxCell>
        <mxCell id="RC7gPSI_Rmm21fb-OFnv-5" value="embeded&lt;div&gt;sequences&lt;/div&gt;" style="shape=process;whiteSpace=wrap;html=1;backgroundOutline=1;fontSize=10;" vertex="1" parent="oSNWQE6mf8nxNRP08fyD-1">
          <mxGeometry x="400" y="670" width="140" height="30" as="geometry" />
        </mxCell>
        <mxCell id="RC7gPSI_Rmm21fb-OFnv-6" value="lstm" style="rounded=0;whiteSpace=wrap;html=1;fillColor=#dae8fc;strokeColor=#6c8ebf;" vertex="1" parent="oSNWQE6mf8nxNRP08fyD-1">
          <mxGeometry x="500" y="670" width="25" height="30" as="geometry" />
        </mxCell>
      </root>
    </mxGraphModel>
  </diagram>
  <diagram id="09ML1VTsMgWc1Ivybcz0" name="Image_padding">
    <mxGraphModel dx="1434" dy="836" grid="1" gridSize="10" guides="1" tooltips="1" connect="1" arrows="1" fold="1" page="1" pageScale="1" pageWidth="827" pageHeight="1169" math="0" shadow="0">
      <root>
        <mxCell id="0" />
        <mxCell id="1" parent="0" />
        <mxCell id="bBLqQBSScu7mDvDNxlsq-1" value="Image" style="rounded=0;whiteSpace=wrap;html=1;labelPosition=center;verticalLabelPosition=top;align=center;verticalAlign=bottom;" vertex="1" parent="1">
          <mxGeometry x="80" y="320" width="80" height="80" as="geometry" />
        </mxCell>
        <mxCell id="bBLqQBSScu7mDvDNxlsq-3" value="max_image" style="rounded=0;whiteSpace=wrap;html=1;labelPosition=center;verticalLabelPosition=top;align=center;verticalAlign=bottom;" vertex="1" parent="1">
          <mxGeometry x="80" y="80" width="120" height="120" as="geometry" />
        </mxCell>
        <mxCell id="bBLqQBSScu7mDvDNxlsq-4" value="" style="rounded=0;whiteSpace=wrap;html=1;fillColor=#dae8fc;strokeColor=#6c8ebf;" vertex="1" parent="1">
          <mxGeometry x="80" y="320" width="40" height="40" as="geometry" />
        </mxCell>
        <mxCell id="bBLqQBSScu7mDvDNxlsq-5" value="" style="rounded=0;whiteSpace=wrap;html=1;fillColor=#dae8fc;strokeColor=#6c8ebf;" vertex="1" parent="1">
          <mxGeometry x="120" y="320" width="40" height="40" as="geometry" />
        </mxCell>
        <mxCell id="bBLqQBSScu7mDvDNxlsq-6" value="" style="rounded=0;whiteSpace=wrap;html=1;fillColor=#dae8fc;strokeColor=#6c8ebf;" vertex="1" parent="1">
          <mxGeometry x="80" y="360" width="40" height="40" as="geometry" />
        </mxCell>
        <mxCell id="bBLqQBSScu7mDvDNxlsq-8" value="" style="rounded=0;whiteSpace=wrap;html=1;fillColor=#dae8fc;strokeColor=#6c8ebf;" vertex="1" parent="1">
          <mxGeometry x="120" y="360" width="40" height="40" as="geometry" />
        </mxCell>
        <mxCell id="bBLqQBSScu7mDvDNxlsq-9" value="" style="rounded=0;whiteSpace=wrap;html=1;fillColor=#dae8fc;strokeColor=#6c8ebf;" vertex="1" parent="1">
          <mxGeometry x="80" y="80" width="40" height="40" as="geometry" />
        </mxCell>
        <mxCell id="bBLqQBSScu7mDvDNxlsq-10" value="" style="rounded=0;whiteSpace=wrap;html=1;fillColor=#dae8fc;strokeColor=#6c8ebf;" vertex="1" parent="1">
          <mxGeometry x="120" y="80" width="40" height="40" as="geometry" />
        </mxCell>
        <mxCell id="bBLqQBSScu7mDvDNxlsq-11" value="" style="rounded=0;whiteSpace=wrap;html=1;fillColor=#dae8fc;strokeColor=#6c8ebf;" vertex="1" parent="1">
          <mxGeometry x="160" y="80" width="40" height="40" as="geometry" />
        </mxCell>
        <mxCell id="bBLqQBSScu7mDvDNxlsq-12" value="" style="rounded=0;whiteSpace=wrap;html=1;fillColor=#dae8fc;strokeColor=#6c8ebf;" vertex="1" parent="1">
          <mxGeometry x="80" y="120" width="40" height="40" as="geometry" />
        </mxCell>
        <mxCell id="bBLqQBSScu7mDvDNxlsq-13" value="" style="rounded=0;whiteSpace=wrap;html=1;fillColor=#dae8fc;strokeColor=#6c8ebf;" vertex="1" parent="1">
          <mxGeometry x="120" y="120" width="40" height="40" as="geometry" />
        </mxCell>
        <mxCell id="bBLqQBSScu7mDvDNxlsq-14" value="" style="rounded=0;whiteSpace=wrap;html=1;fillColor=#dae8fc;strokeColor=#6c8ebf;" vertex="1" parent="1">
          <mxGeometry x="160" y="120" width="40" height="40" as="geometry" />
        </mxCell>
        <mxCell id="bBLqQBSScu7mDvDNxlsq-15" value="" style="rounded=0;whiteSpace=wrap;html=1;fillColor=#dae8fc;strokeColor=#6c8ebf;" vertex="1" parent="1">
          <mxGeometry x="80" y="160" width="40" height="40" as="geometry" />
        </mxCell>
        <mxCell id="bBLqQBSScu7mDvDNxlsq-16" value="" style="rounded=0;whiteSpace=wrap;html=1;fillColor=#dae8fc;strokeColor=#6c8ebf;" vertex="1" parent="1">
          <mxGeometry x="120" y="160" width="40" height="40" as="geometry" />
        </mxCell>
        <mxCell id="bBLqQBSScu7mDvDNxlsq-17" value="" style="rounded=0;whiteSpace=wrap;html=1;fillColor=#dae8fc;strokeColor=#6c8ebf;" vertex="1" parent="1">
          <mxGeometry x="160" y="160" width="40" height="40" as="geometry" />
        </mxCell>
        <mxCell id="bBLqQBSScu7mDvDNxlsq-18" value="Normalization" style="endArrow=classic;html=1;rounded=0;" edge="1" parent="1">
          <mxGeometry x="-0.2222" width="50" height="50" relative="1" as="geometry">
            <mxPoint x="175" y="400" as="sourcePoint" />
            <mxPoint x="265" y="400" as="targetPoint" />
            <mxPoint as="offset" />
          </mxGeometry>
        </mxCell>
        <mxCell id="bBLqQBSScu7mDvDNxlsq-19" value="Padded_image" style="rounded=0;whiteSpace=wrap;html=1;labelPosition=center;verticalLabelPosition=top;align=center;verticalAlign=bottom;" vertex="1" parent="1">
          <mxGeometry x="280" y="320" width="80" height="80" as="geometry" />
        </mxCell>
        <mxCell id="bBLqQBSScu7mDvDNxlsq-20" value="" style="rounded=0;whiteSpace=wrap;html=1;fillColor=#dae8fc;strokeColor=#6c8ebf;" vertex="1" parent="1">
          <mxGeometry x="280" y="320" width="40" height="40" as="geometry" />
        </mxCell>
        <mxCell id="bBLqQBSScu7mDvDNxlsq-21" value="" style="rounded=0;whiteSpace=wrap;html=1;fillColor=#dae8fc;strokeColor=#6c8ebf;" vertex="1" parent="1">
          <mxGeometry x="320" y="320" width="40" height="40" as="geometry" />
        </mxCell>
        <mxCell id="bBLqQBSScu7mDvDNxlsq-22" value="" style="rounded=0;whiteSpace=wrap;html=1;fillColor=#dae8fc;strokeColor=#6c8ebf;" vertex="1" parent="1">
          <mxGeometry x="280" y="360" width="40" height="40" as="geometry" />
        </mxCell>
        <mxCell id="bBLqQBSScu7mDvDNxlsq-23" value="" style="rounded=0;whiteSpace=wrap;html=1;fillColor=#dae8fc;strokeColor=#6c8ebf;" vertex="1" parent="1">
          <mxGeometry x="320" y="360" width="40" height="40" as="geometry" />
        </mxCell>
        <mxCell id="bBLqQBSScu7mDvDNxlsq-24" value="" style="rounded=0;whiteSpace=wrap;html=1;fillColor=#dae8fc;strokeColor=#6c8ebf;" vertex="1" parent="1">
          <mxGeometry x="280" y="400" width="40" height="40" as="geometry" />
        </mxCell>
        <mxCell id="bBLqQBSScu7mDvDNxlsq-25" value="" style="rounded=0;whiteSpace=wrap;html=1;fillColor=#dae8fc;strokeColor=#6c8ebf;" vertex="1" parent="1">
          <mxGeometry x="200" y="80" width="40" height="40" as="geometry" />
        </mxCell>
        <mxCell id="bBLqQBSScu7mDvDNxlsq-26" value="" style="rounded=0;whiteSpace=wrap;html=1;fillColor=#dae8fc;strokeColor=#6c8ebf;" vertex="1" parent="1">
          <mxGeometry x="200" y="120" width="40" height="40" as="geometry" />
        </mxCell>
        <mxCell id="bBLqQBSScu7mDvDNxlsq-27" value="" style="rounded=0;whiteSpace=wrap;html=1;fillColor=#dae8fc;strokeColor=#6c8ebf;" vertex="1" parent="1">
          <mxGeometry x="200" y="160" width="40" height="40" as="geometry" />
        </mxCell>
        <mxCell id="bBLqQBSScu7mDvDNxlsq-28" value="" style="rounded=0;whiteSpace=wrap;html=1;fillColor=#dae8fc;strokeColor=#6c8ebf;" vertex="1" parent="1">
          <mxGeometry x="80" y="400" width="40" height="40" as="geometry" />
        </mxCell>
        <mxCell id="bBLqQBSScu7mDvDNxlsq-29" value="" style="rounded=0;whiteSpace=wrap;html=1;fillColor=#dae8fc;strokeColor=#6c8ebf;" vertex="1" parent="1">
          <mxGeometry x="120" y="400" width="40" height="40" as="geometry" />
        </mxCell>
        <mxCell id="bBLqQBSScu7mDvDNxlsq-30" value="" style="rounded=0;whiteSpace=wrap;html=1;fillColor=#dae8fc;strokeColor=#6c8ebf;" vertex="1" parent="1">
          <mxGeometry x="320" y="400" width="40" height="40" as="geometry" />
        </mxCell>
        <mxCell id="bBLqQBSScu7mDvDNxlsq-31" value="" style="rounded=0;whiteSpace=wrap;html=1;fillColor=#dae8fc;strokeColor=#6c8ebf;" vertex="1" parent="1">
          <mxGeometry x="80" y="200" width="40" height="40" as="geometry" />
        </mxCell>
        <mxCell id="bBLqQBSScu7mDvDNxlsq-32" value="" style="rounded=0;whiteSpace=wrap;html=1;fillColor=#dae8fc;strokeColor=#6c8ebf;" vertex="1" parent="1">
          <mxGeometry x="120" y="200" width="40" height="40" as="geometry" />
        </mxCell>
        <mxCell id="bBLqQBSScu7mDvDNxlsq-33" value="" style="rounded=0;whiteSpace=wrap;html=1;fillColor=#dae8fc;strokeColor=#6c8ebf;" vertex="1" parent="1">
          <mxGeometry x="160" y="200" width="40" height="40" as="geometry" />
        </mxCell>
        <mxCell id="bBLqQBSScu7mDvDNxlsq-34" value="" style="rounded=0;whiteSpace=wrap;html=1;fillColor=#dae8fc;strokeColor=#6c8ebf;" vertex="1" parent="1">
          <mxGeometry x="200" y="200" width="40" height="40" as="geometry" />
        </mxCell>
        <mxCell id="bBLqQBSScu7mDvDNxlsq-36" value="" style="rounded=0;whiteSpace=wrap;html=1;fillColor=#f8cecc;strokeColor=#b85450;" vertex="1" parent="1">
          <mxGeometry x="360" y="320" width="40" height="40" as="geometry" />
        </mxCell>
        <mxCell id="bBLqQBSScu7mDvDNxlsq-37" value="" style="rounded=0;whiteSpace=wrap;html=1;fillColor=#f8cecc;strokeColor=#b85450;" vertex="1" parent="1">
          <mxGeometry x="360" y="360" width="40" height="40" as="geometry" />
        </mxCell>
        <mxCell id="bBLqQBSScu7mDvDNxlsq-38" value="" style="rounded=0;whiteSpace=wrap;html=1;fillColor=#f8cecc;strokeColor=#b85450;" vertex="1" parent="1">
          <mxGeometry x="360" y="400" width="40" height="40" as="geometry" />
        </mxCell>
        <mxCell id="bBLqQBSScu7mDvDNxlsq-39" value="" style="rounded=0;whiteSpace=wrap;html=1;fillColor=#f8cecc;strokeColor=#b85450;" vertex="1" parent="1">
          <mxGeometry x="280" y="440" width="40" height="40" as="geometry" />
        </mxCell>
        <mxCell id="bBLqQBSScu7mDvDNxlsq-40" value="" style="rounded=0;whiteSpace=wrap;html=1;fillColor=#f8cecc;strokeColor=#b85450;" vertex="1" parent="1">
          <mxGeometry x="320" y="440" width="40" height="40" as="geometry" />
        </mxCell>
        <mxCell id="bBLqQBSScu7mDvDNxlsq-41" value="" style="rounded=0;whiteSpace=wrap;html=1;fillColor=#f8cecc;strokeColor=#b85450;" vertex="1" parent="1">
          <mxGeometry x="360" y="440" width="40" height="40" as="geometry" />
        </mxCell>
        <mxCell id="bBLqQBSScu7mDvDNxlsq-42" value="" style="rounded=0;whiteSpace=wrap;html=1;fillColor=#f8cecc;strokeColor=#b85450;" vertex="1" parent="1">
          <mxGeometry x="400" y="440" width="40" height="40" as="geometry" />
        </mxCell>
        <mxCell id="bBLqQBSScu7mDvDNxlsq-43" value="" style="rounded=0;whiteSpace=wrap;html=1;fillColor=#f8cecc;strokeColor=#b85450;" vertex="1" parent="1">
          <mxGeometry x="400" y="400" width="40" height="40" as="geometry" />
        </mxCell>
        <mxCell id="bBLqQBSScu7mDvDNxlsq-44" value="" style="rounded=0;whiteSpace=wrap;html=1;fillColor=#f8cecc;strokeColor=#b85450;" vertex="1" parent="1">
          <mxGeometry x="400" y="360" width="40" height="40" as="geometry" />
        </mxCell>
        <mxCell id="bBLqQBSScu7mDvDNxlsq-45" value="" style="rounded=0;whiteSpace=wrap;html=1;fillColor=#f8cecc;strokeColor=#b85450;" vertex="1" parent="1">
          <mxGeometry x="400" y="320" width="40" height="40" as="geometry" />
        </mxCell>
        <mxCell id="bBLqQBSScu7mDvDNxlsq-47" value="Patchification&lt;br&gt;4*4" style="endArrow=classic;html=1;rounded=0;" edge="1" parent="1">
          <mxGeometry x="-0.1111" width="50" height="50" relative="1" as="geometry">
            <mxPoint x="480" y="399" as="sourcePoint" />
            <mxPoint x="600" y="399" as="targetPoint" />
            <mxPoint as="offset" />
          </mxGeometry>
        </mxCell>
        <mxCell id="bBLqQBSScu7mDvDNxlsq-65" value="Patched_image" style="rounded=0;whiteSpace=wrap;html=1;labelPosition=center;verticalLabelPosition=top;align=center;verticalAlign=bottom;" vertex="1" parent="1">
          <mxGeometry x="640" y="320" width="80" height="80" as="geometry" />
        </mxCell>
        <mxCell id="bBLqQBSScu7mDvDNxlsq-66" value="" style="rounded=0;whiteSpace=wrap;html=1;fillColor=#dae8fc;strokeColor=#6c8ebf;" vertex="1" parent="1">
          <mxGeometry x="640" y="320" width="80" height="80" as="geometry" />
        </mxCell>
        <mxCell id="bBLqQBSScu7mDvDNxlsq-70" value="" style="rounded=0;whiteSpace=wrap;html=1;fillColor=#e1d5e7;strokeColor=#9673a6;" vertex="1" parent="1">
          <mxGeometry x="640" y="400" width="80" height="80" as="geometry" />
        </mxCell>
        <mxCell id="bBLqQBSScu7mDvDNxlsq-74" value="" style="rounded=0;whiteSpace=wrap;html=1;fillColor=#f8cecc;strokeColor=#b85450;" vertex="1" parent="1">
          <mxGeometry x="720" y="400" width="80" height="80" as="geometry" />
        </mxCell>
        <mxCell id="bBLqQBSScu7mDvDNxlsq-83" value="" style="rounded=0;whiteSpace=wrap;html=1;fillColor=#f8cecc;strokeColor=#b85450;" vertex="1" parent="1">
          <mxGeometry x="720" y="320" width="80" height="80" as="geometry" />
        </mxCell>
        <mxCell id="bBLqQBSScu7mDvDNxlsq-85" value="mask_image" style="rounded=0;whiteSpace=wrap;html=1;labelPosition=center;verticalLabelPosition=top;align=center;verticalAlign=bottom;" vertex="1" parent="1">
          <mxGeometry x="640" y="530" width="80" height="80" as="geometry" />
        </mxCell>
        <mxCell id="bBLqQBSScu7mDvDNxlsq-86" value="" style="rounded=0;whiteSpace=wrap;html=1;" vertex="1" parent="1">
          <mxGeometry x="640" y="530" width="80" height="80" as="geometry" />
        </mxCell>
        <mxCell id="bBLqQBSScu7mDvDNxlsq-87" value="" style="rounded=0;whiteSpace=wrap;html=1;" vertex="1" parent="1">
          <mxGeometry x="640" y="610" width="80" height="80" as="geometry" />
        </mxCell>
        <mxCell id="bBLqQBSScu7mDvDNxlsq-88" value="" style="rounded=0;whiteSpace=wrap;html=1;fillColor=#0D0D0D;strokeColor=#36393d;" vertex="1" parent="1">
          <mxGeometry x="720" y="610" width="80" height="80" as="geometry" />
        </mxCell>
        <mxCell id="bBLqQBSScu7mDvDNxlsq-89" value="" style="rounded=0;whiteSpace=wrap;html=1;fillColor=#0D0D0D;strokeColor=#36393d;" vertex="1" parent="1">
          <mxGeometry x="720" y="530" width="80" height="80" as="geometry" />
        </mxCell>
        <mxCell id="bBLqQBSScu7mDvDNxlsq-91" value="padded_mask" style="rounded=0;whiteSpace=wrap;html=1;labelPosition=center;verticalLabelPosition=top;align=center;verticalAlign=bottom;" vertex="1" parent="1">
          <mxGeometry x="280" y="520" width="80" height="80" as="geometry" />
        </mxCell>
        <mxCell id="bBLqQBSScu7mDvDNxlsq-92" value="" style="rounded=0;whiteSpace=wrap;html=1;" vertex="1" parent="1">
          <mxGeometry x="280" y="520" width="40" height="40" as="geometry" />
        </mxCell>
        <mxCell id="bBLqQBSScu7mDvDNxlsq-93" value="" style="rounded=0;whiteSpace=wrap;html=1;" vertex="1" parent="1">
          <mxGeometry x="320" y="520" width="40" height="40" as="geometry" />
        </mxCell>
        <mxCell id="bBLqQBSScu7mDvDNxlsq-94" value="" style="rounded=0;whiteSpace=wrap;html=1;" vertex="1" parent="1">
          <mxGeometry x="280" y="560" width="40" height="40" as="geometry" />
        </mxCell>
        <mxCell id="bBLqQBSScu7mDvDNxlsq-95" value="" style="rounded=0;whiteSpace=wrap;html=1;" vertex="1" parent="1">
          <mxGeometry x="320" y="560" width="40" height="40" as="geometry" />
        </mxCell>
        <mxCell id="bBLqQBSScu7mDvDNxlsq-96" value="" style="rounded=0;whiteSpace=wrap;html=1;" vertex="1" parent="1">
          <mxGeometry x="280" y="600" width="40" height="40" as="geometry" />
        </mxCell>
        <mxCell id="bBLqQBSScu7mDvDNxlsq-97" value="" style="rounded=0;whiteSpace=wrap;html=1;" vertex="1" parent="1">
          <mxGeometry x="320" y="600" width="40" height="40" as="geometry" />
        </mxCell>
        <mxCell id="bBLqQBSScu7mDvDNxlsq-98" value="" style="rounded=0;whiteSpace=wrap;html=1;fillColor=#000000;strokeColor=#b85450;" vertex="1" parent="1">
          <mxGeometry x="360" y="520" width="40" height="40" as="geometry" />
        </mxCell>
        <mxCell id="bBLqQBSScu7mDvDNxlsq-99" value="" style="rounded=0;whiteSpace=wrap;html=1;fillColor=#000000;strokeColor=#b85450;" vertex="1" parent="1">
          <mxGeometry x="360" y="560" width="40" height="40" as="geometry" />
        </mxCell>
        <mxCell id="bBLqQBSScu7mDvDNxlsq-100" value="" style="rounded=0;whiteSpace=wrap;html=1;fillColor=#000000;strokeColor=#b85450;" vertex="1" parent="1">
          <mxGeometry x="360" y="600" width="40" height="40" as="geometry" />
        </mxCell>
        <mxCell id="bBLqQBSScu7mDvDNxlsq-101" value="" style="rounded=0;whiteSpace=wrap;html=1;fillColor=#000000;strokeColor=#b85450;" vertex="1" parent="1">
          <mxGeometry x="280" y="640" width="40" height="40" as="geometry" />
        </mxCell>
        <mxCell id="bBLqQBSScu7mDvDNxlsq-102" value="" style="rounded=0;whiteSpace=wrap;html=1;fillColor=#000000;strokeColor=#b85450;" vertex="1" parent="1">
          <mxGeometry x="320" y="640" width="40" height="40" as="geometry" />
        </mxCell>
        <mxCell id="bBLqQBSScu7mDvDNxlsq-103" value="" style="rounded=0;whiteSpace=wrap;html=1;fillColor=#000000;strokeColor=#b85450;" vertex="1" parent="1">
          <mxGeometry x="360" y="640" width="40" height="40" as="geometry" />
        </mxCell>
        <mxCell id="bBLqQBSScu7mDvDNxlsq-104" value="" style="rounded=0;whiteSpace=wrap;html=1;fillColor=#000000;strokeColor=#b85450;" vertex="1" parent="1">
          <mxGeometry x="400" y="640" width="40" height="40" as="geometry" />
        </mxCell>
        <mxCell id="bBLqQBSScu7mDvDNxlsq-105" value="" style="rounded=0;whiteSpace=wrap;html=1;fillColor=#000000;strokeColor=#b85450;" vertex="1" parent="1">
          <mxGeometry x="400" y="600" width="40" height="40" as="geometry" />
        </mxCell>
        <mxCell id="bBLqQBSScu7mDvDNxlsq-106" value="" style="rounded=0;whiteSpace=wrap;html=1;fillColor=#000000;strokeColor=#b85450;" vertex="1" parent="1">
          <mxGeometry x="400" y="560" width="40" height="40" as="geometry" />
        </mxCell>
        <mxCell id="bBLqQBSScu7mDvDNxlsq-107" value="" style="rounded=0;whiteSpace=wrap;html=1;fillColor=#000000;strokeColor=#b85450;" vertex="1" parent="1">
          <mxGeometry x="400" y="520" width="40" height="40" as="geometry" />
        </mxCell>
        <mxCell id="BUNSldtV2NJRdBMTGjbV-1" value="Patchification&lt;br&gt;4*4" style="endArrow=classic;html=1;rounded=0;" edge="1" parent="1">
          <mxGeometry x="-0.1111" width="50" height="50" relative="1" as="geometry">
            <mxPoint x="480" y="600" as="sourcePoint" />
            <mxPoint x="600" y="600" as="targetPoint" />
            <mxPoint as="offset" />
          </mxGeometry>
        </mxCell>
      </root>
    </mxGraphModel>
  </diagram>
</mxfile>
